<?xml version="1.0" encoding="UTF-8"?>
<!DOCTYPE svg  PUBLIC '-//W3C//DTD SVG 1.1//EN'  'http://www.w3.org/Graphics/SVG/1.1/DTD/svg11.dtd'>
<svg width="100mm" height="100mm" clip-rule="evenodd" fill-rule="evenodd" image-rendering="optimizeQuality" shape-rendering="geometricPrecision" text-rendering="geometricPrecision" version="1.1" viewBox="0 0 2492.16 2492.16" xml:space="preserve" xmlns="http://www.w3.org/2000/svg">
 <defs>
  <style type="text/css">
   <![CDATA[
    .str0 {stroke:#2B2A29;stroke-width:4.65;stroke-miterlimit:22.9256}
    .fil0 {fill:#FEFEFE}
    .fil18 {fill:#202020}
    .fil46 {fill:#2a2a2a}
    .fil22 {fill:#2f2f2f}
    .fil40 {fill:#353535}
    .fil43 {fill:#373737}
    .fil27 {fill:#3B3B3B}
    .fil30 {fill:#3D3D3D}
    .fil12 {fill:#3f3f3f}
    .fil24 {fill:#404040}
    .fil37 {fill:#464646}
    .fil10 {fill:#494949}
    .fil6 {fill:#4A4A4A}
    .fil1 {fill:#4A4A4A}
    .fil16 {fill:#4D4D4D}
    .fil44 {fill:#515151}
    .fil28 {fill:#5D5D5D}
    .fil4 {fill:#636363}
    .fil36 {fill:#646464}
    .fil33 {fill:#666666}
    .fil19 {fill:#696969}
    .fil15 {fill:#686868}
    .fil9 {fill:#6E6E6E}
    .fil5 {fill:#6A6A6A}
    .fil34 {fill:#6B6B6B}
    .fil39 {fill:#727272}
    .fil17 {fill:#717171}
    .fil35 {fill:#737373}
    .fil13 {fill:#747474}
    .fil42 {fill:#757575}
    .fil2 {fill:gray}
    .fil8 {fill:#808080}
    .fil21 {fill:#828282}
    .fil25 {fill:#848484}
    .fil14 {fill:#878787}
    .fil20 {fill:#888888}
    .fil11 {fill:#949494}
    .fil29 {fill:#959595}
    .fil31 {fill:#939393}
    .fil38 {fill:#969696}
    .fil26 {fill:#989898}
    .fil32 {fill:#999999}
    .fil3 {fill:#9C9C9C}
    .fil7 {fill:#9B9B9B}
    .fil23 {fill:#B7B7B7}
    .fil41 {fill:#CACACA}
    .fil45 {fill:#FBFBFB}
   ]]>
  </style>
 </defs>
  <circle class="fil0 str0" cx="1246.1" cy="1246.1" r="1145.3"/>
   <polygon class="fil1" points="988.14 2145.9 1205.7 2145.9 1205.7 2329.6 988.14 2329.6"/>
   <path class="fil2" d="m708.47 1125.5c40.1-7.51 20.14-7.55 23.95-33.93 16.1 2.89 1.16 14.34 21.83 8.36 21.6-6.25 23.15-4.87 44.95-6.86 13.47-1.23 61.63 1.78 57.63 21.19-18.59 13.09-39.33-8.65-43.23 19.02-3.77 26.81-40.73 20.44-23.07 47.74l35.89-12.31-7.44-11.25c17.66-4.59 31.61 0.28 31.39 22.18l-23.18-1.48 6.41 22.93c26.18-20.79 34.68 6.08 2.97 12.81-13.56 2.88-11.21-5.21-20.05-3.82-12.63 1.99-19.57 17.43-32.18 10.22l17.2-26.31-31.47 14.87 5.32-23.78c-18.43-6.68-43.14 35.66-69.31 53.55-5.46 3.73-8.42 27.74-17.79 45.07l12.56 6.06-30.5 20.69c-31.83-14.84 2.87-32.13 5.69-36.19l-22.18-25.98c10.88-4.5 22.67 11.03 28.4-6.92-10.35-3.98-23.3 8.71-24.52-8.52-1.04-14.66 9.68-2.72 12.64-13.31 8.41-30.1-9.5-30.85 37.03-40.86l-9.91-10.71 23.02-25.93-12.06-16.52zm-480.15 247.72l-5.76-65.78c-5.8-31.94 44.1-216.87 59.07-253.21 17.02-41.33 9.95-70.94 51.12-101.36 32.25-23.83 15.46-13.11 26.69-40.8 6.23-15.36 17.96-42.83 30.8-51.43l6.83 3.79c0.43 21.17-12.76 28.25-21.35 46.77 3.12 16.94 6.95-0.73 7.55 19.65 0.42 14.16-5.73 10.01-4.55 24.6l-3.58-6.03c-25.88 37.79-30.7-5.08-43.89 30.52l-20 1.18c0.23 13.9-9.68 28.9-14.54 42.88-6.55 18.83-6.4 36.66-12.23 52.18-3.09 8.23-37.03 67.47-20.69 101.6 12.33-3.91 6.5-4.13 13.35-17.77l49.18-81.6c3.27-7.05 14.98-52.31 38.48-59.59l35.88-1.75c0.72 4.97-9.75 29.62-12.79 39.77-4.19 13.98-14.57 21.47-26.73 30.29l8.39 38.55c18.06 6.37 35.71-8.56 35.5 21.93-13.29 8.03-48.23 4.42-58.67 24.33-12.96 24.73-2.87 41.35-43.65 36.41l-14.58-31.48c-9.13 24.6 7.11 8.23-15.45 27.81-28.09 24.39-32.11 80.21-36.21 104.39 11.37-9.46 35.26 30.63 40.9 41.29l62.61 4.68c9.61 14.61 9.37 35.34 22.09 48.44 17.94 18.47 34.16 3.1 55.75 16.14l-30.16 60.62c11.17 6.44 36.76-7.36 31.3 19.81-2.7 13.47-7.57 8.44-9.8 20.25-1.47 7.78 2 13.39-0.17 26.45-1.43 1.92-31.41 35.15-32.28 35.85-58.04 46.96-26.66 8.79-4.25 46.41 23.83-26.22 0.71-6.67 35.31-25.21 18.97-10.16 20.83-14.59 25.98-35.95 8.07-33.42 16.09-57.63 22.33-95.46 3.96-24.02 8.4-79.55 17.99-97.99 12.25-23.58 13.39-65.45 11.5-94.58-21.05 6.31-2.22 10.25-11.57 26.46-17.59-11.9-11.19-21.15-31.54-19.99-13.51 27.77 9.98 13.09-7.81 32.89l27.5 15.31c-0.1 3.54-4 53.01-4.56 54.83-4.53 14.76-2.46 4.67-6.42 11.67-3.68 6.52-21.74 40.32-20.36 4.93-0.81-18.15-4.36-32.23-12-47.13-7.05-21.28-38.4-23.18-29.72-61.45 0.35-1.53 25.44-52.26 30.13-63.97l11.45-17.33c6.22-3.08 43.94-7.43 59.63-40.84 23.37-49.75-4.19-34.13 0.01-82.88l26.58 25.57c26.5 14.05 22.16 13.97 15.62 36.74-5.46 19.02 6.98 44.75 7.07 71.89 0.03 11.12-0.93 41.64 0.89 49.91 4.02 18.34 18.6 3.22 1.13 33.78-19.75 34.55-35 96.47-50.1 117.13-7.85 10.74-33.31 32.22-27.38 49.04 2.48 7.03 8.39 0.85 6.37 9.84-2.35 10.4-7.43 12.65-5.54 25 7.72 5.71 21.51-11.5 15.45 35.11-1.76 13.55 2.37 7.84 12.34 9.42 14.78 2.35 4.04 10.32 12.07 11.36 27.51-25.85-7.68-62.72 28.89-62.95 16.87-0.11 3.71-3.4 7.45-21.98 3.44-17.11 20.8-17.17 30.92-33.66l-24.27 8.46c-0.88-6.46 12.73-22.55-5.54-28.35l-4.18 29.82c-14.09 0.91-27.94-28.06-11.57-43.94 20.29-19.69 28.19 24.25 27.26-13.58-0.42-17.14 4.25-20.18 7.88-34.99 3.49-14.24-1.74-28.77-3.05-43.92-3.19-37.13 19.46-11.26 27.41-50.75l12.36 12.88 1.58-24.72c-8.13 8.43 16.81 13.41 26.86 10.91 9.36-13.46 1.66-21.49 4.84-36.49l54.66-123c12.62-34.88 14.9-45.96 43.84-71.53 0.34-0.3 28.55-60.33 34.11-70.33 37.81-68.01 42.57-83.23 106.9-130.9 43.04-31.9 62.04 6.06 78.37-9.63 8.11-7.79 47.9-50.55 55.9-51.22l7.78 20.94c22.62-15.58 26.54-21.31 54.81-22.55-7.02 14.25-9.72 11.94-22.11 21.05-28.11 20.67 21.47 13.47-45.17 36.23 5.22 15.28 22.62-14.38 43.86 8.65l-45.08 6.57c0.99-6.75 9.51-6.05 13.51 10.81l-37.1-4.7c17.93 10.2 9.76 18.21 3.17 22.14 38.52-3.82 9.86 11.67 67.08 42.83 6.19-20.4-1.32-5.61 18.65-17.35 8.26-4.85-3.32-10.26 17.47-6.81 12.09 2 5.69 9.41 24.54 1.66 21.95-9.02 2.96-20.32 17.13-28.95 25-15.22-1.08 8.6 10.17-7.13 10.28-14.38-4.87-0.26 8.7-20.79l8.07 12.96c-23.33 13.39 58.4-3.3 92.08 24.83-2.99 16.29 1.02 3.23-19.83 8.05l14.1 12.27-0.1-1.93-29.12 9.8c-7.5-9.71 1.09-6.17-20.46-5.04-22.2 1.16-26.24-0.78-50.34 4.39-19.89 4.27-30.05-5.46-38.28 2.99-17.95 18.44-17.58 11.85-41.07 9.03l-29.9 36.38-25.22-15.11-14.23 5.13c12.81 7.72 10.11 20.78-2.72 24.73-12.3 3.79-3.28-5.62-12.08 0.05-5.86 3.77-0.2 5.59-11.86 12.44l-42.26-17.79 12.23 21.53-28.76-12.23c7.79 27.68 4.59 33.11-20.83 45.34 15.96 11.06 28.51 10.18 30.57 27.87 2.73 23.44 14.32 4.05 19.03 27.3l-49.88 4.64 83.25 20.44c-13.88 19.89 14.1 9.89 33.34 13.41l27.95 29.83c-8.61 18.59-13.53 11.57-28.4 16.36l24.19 17.28-17.77 20.03 50.21 37.91-40.07 6.54 12.89 8.05c-55.06-0.23-25.99 9.03-57.36 17.57-21.25-6.91-9.15-15.56-25.85-9.44-11.59 4.25-16.83 8.99-31.95 4.17l12.34-17.01c-29.99-4.35-27.63 30.72-30.42 33.27-14.85 5.74-45.49-2.07-33.39 23.43l26.85-8.31-11.69 26.42 21.63-4.02-36.26 35.05 30.33-14.96c2.76 10.82-6.51 12.54 1.08 31.02 6.04 14.72 11.77 8.63 17.54 17.08-14.49 14.59-41 41.08-59.24 47.15-16.96 5.63-7.3 8.96-11.56 22.31-5.72 17.91-14.58 6.61-22.62 21.38l39.57 5.55 13.99-19.44 2.44 25.55c34.02 13.1 27.46-25.32 56.45-9.87l-14.62 29.78c10.17 12.06 11.52 6.58 26.43 3.3 9.54 33.82 22.1 19.41 41.01-0.65l13.74 15.06-46.89 31.26 2.6 11.24c-37.27 12.8-51.36 21.63-80.24 45.84l5.87 42.17c19.36-2.59 29.95-10.96 47.35-22.87 6.55-4.48 10.15-9.09 17.59-14.66 26.54-19.88 11.94 12.42 47.65-26.05 15.19-16.36 3.1-14.29 38.83-19.01l-1.05-20.78c28.82 6.21 20.51-3.09 50.98-1.18-18.47 22.11-43.08 34.76-64.77 46.42-10.83 5.83-18.94 19.08-30.6 25.87-16.96 9.88-22.21 5.83-36.68 21.56-10.86 11.81-54.53 46.11-56.85 54.35-4.26 15.14 9.31 11.47-7.71 36.5-10.25 15.08-9.14 27.44-20 32.61l-9.09-25.04c10.11-9.23 25.74-7.31 26.21-31.82l-28 23.04-15.09-13.88c-47.01 30.15-7.03-33.51-10.22-50.43l-15.58-6.18c-10.79 12.87-24.07 29.24-35.54 4.58-27.22 23.05-10.96 6.49-13.04-5.52l-25.21 4.74c-14.86-19.67-12.92-38.74-32.69-7.23-5.4 8.61-17.43 13.9-28.87 12.14-18.61-2.86-1.71-2.37-11.47-20.59l-23.92 24.5 13.82-27.14c-18.5-9.42-28.1 28.87-29.61 42.73l1.2 0.88-29.87-16.28c2.76-19.98 32.96-49.33 19.54-60.96l-17.84 8.66c-24.91-3.18-43.51 33.71-55.92 36 0.65-42.02 40.83-53.72 72.69-65.23 3.82-6.58 6.34-31.68 6.97-40.22 0.87-11.95 37.27-20.18 37.73-53.23l-29.69 15.47-29.26 17.85 13.54-32.29c-0.16-0.45-37.02-17.29-21.96 23.82 4.88 13.31-19.94 38.56-33.86 40.73l-2.42-27.7c-30 6.37 2.06 34-13.94 53.7l-14.98-16.36c-3.61 14.3 8.07 26.01-15.05 38.38l2.68-17.42-20.25 19.17c-1.88-1.17-3.92-23.28-16.55-13.17-3.11 2.49 5.31-13.98 5.98-20.41 1.87-18.04-39.88 6.92-45.32 23.13l30.73-4.78-24.38 29.91c3.3 24.46 24.17 25.21 1.24 42.91-19.41 14.98-1.69 16.48-19.81 37.64-15.3 17.86 0.41-5.83 8.76 28.97 5.84 24.35-0.59 17.08-7.22 37.21 3.27 2.85 21.29-8.82 18.56 16.52-2.42 22.5-10.47-1.09-15.55-2.28l-6.05 33.55-29.55-33.03-6.56 45.63-15.54-86.54c-1.97-23.97-9.31-45.66-15.45-67.46-12.98-46.1-26.28-42.56-15.3-79.9-5.09-45.93 36.5-120.44 0.81-124.2-88.69-9.34-108.07-63.19-113.64-104.36z"/>
   <path class="fil3" d="m1288.9 723.26c-46.1-0.46-65.08 21.68-89.62 25.3l2 14.26c-4.54-0.04-70.52 9.33-71.97 9.67-41.89 9.82-51.5-10.15-61.34 3.15-7.02 14.25-9.72 11.94-22.11 21.05-28.11 20.67 21.47 13.47-45.17 36.23 5.22 15.28 22.62-14.38 43.86 8.65l-45.08 6.57c0.99-6.75 9.51-6.05 13.51 10.81l-37.1-4.7c17.93 10.2 9.76 18.21 3.17 22.14 38.52-3.82 9.86 11.67 67.08 42.83 6.19-20.4-1.32-5.61 18.65-17.35 8.26-4.85-3.32-10.26 17.47-6.81 12.09 2 5.69 9.41 24.54 1.66 21.95-9.02 2.96-20.32 17.13-28.95 25-15.22-1.08 8.6 10.17-7.13 10.28-14.38-4.87-0.26 8.7-20.79l8.07 12.96 34.54 0.02-67.87-26.4 15.45-7.01-12.32-11.87c22.95-4.02 29.15 1.06 56.6-7.19 34.31-10.32 15.62 33.71 88.77 2.81 25.08-10.59 21.37-12.28 36.91-20.52 23.68 10.96 47.95 15.55 66.89 31.87 13.73 11.83 35.13 16.38 56.77 31.84 30.21 21.57 25.51-0.17 55.26 19.33 29.22 19.16 30-23.32 56.38 35.96l14.55-3.61c3.44 23.3 7.24 36.2 22.38 28.55l24.13 22.73c-11.72 10.78-36.7 39.23-6.13 42.82l-10.03 17.17c15.83 1.37 11.47-23.79 34.18-3.36-1.93 21.03-25.39 26.26-22.24 53.97 2.26 19.88 2.73 49.11 3.04 70.15 1.08 23.69 9.9 21.84 9.59 42.29-0.08 5.66-5.76 31.3-7.07 43.79-1.85 17.58-6.2 22.75-12.11 40.37-10.23 30.51-11.49 9.47-20.84 25.38l-9.03 64.14 25.33 45.58-28.19 23.1 17.85 15.52c-15.62 14.57-10.83-5.58-35.96 24.27-9.44 11.21-11.96 8.58-15.73 12.76-4.95 5.49-2.71 10.65-12.03 21.19-30.1-15.11 14.01-11.78-34.79-14.12-29.23-1.4-105.19-24.83-126.78 43.37 41.14 9.74 112.85 7.4 158.07 5.18 37-1.81 78.31-13.01 116.77 5.47 22.26 10.7 4.85 2.85 16.84 23.08 91.7-1.81 34.45 20.9 80.87 6.34 19.61-6.15 32.13 22.16 47.12 33.24l-7.47 9.98-28.96 52.36-7.82 32.11c25.01 4.25 2.69-0.04 16.06-9.03-5.64 24.14 1.77 1.24-1.92 28.35 22.24 11.75 3.02-4.89 16.74 5.03 7.84 5.67-8.04 13.61 13.11 7.41 19.85-5.82-12.48-15.01 36.43-14.38-1.01 10.14-9.17-11.62 6.49 32.48 10.75 30.25 6.95 12.79 10.46 15.37 18.85 13.87-12.22 2.99 18.42 13.6 1.42-33.36 25.06-85.21 34.6-118.81 11.79-41.52 8.77-100.25 5.29-143.9l0.89-32.87-16.1-34.14-29.85 0.46 2.7 17.75-32.06-11.17-7.4 20.57-29.72-6.69c20.77 20.49 22.17 24.47 46.81 39.46 11.01 6.7 17.7 13.75 24.23 18.53 12.71 9.3 20.01 5.9 30 9.84 1.8 35.59-7.98 6.67-10.67 39.61l-67.39 10.67c-12.08-24.78-5.3-25.31-10.93-53.77-3.68-18.59-12.93-29.81-19.37-48.85-12.06-35.67-41.78-49.14-40.7-94.25l-0.59-63.09c-16.14-40.54-37.9-127.92-4.98-162.15l13.8-17.21c5.8-17.49 5.95-9.84 20.15-23.12 19.64-18.36-7.79 10.09 6.54-17.49 17.4 9.01 19.24-1.1 29.41-5.89 0.62-0.29 9.75-2.59 10.78-2.83 59.01-13.62 13.36-12.57 41.9-26.12l12.85-2.76c-6.53-15.69-11.33 7.2-6.17-17.98l79.51-4.48c10.67-24.81-35.49-60.12-55.61-71.3l-70.76-57.35c-13.66-5.63-7.37 1.68-23.72-7.86-20.44-11.93-4-2.79-17.13-14.02-53.3-45.57-111.4-47.24-119.94-76.69l72.87-0.23 11.27-7.58-123.37-74.89c33.35-24.71 68.46 49.71 120.74 32.77 13.84-30.46-101.36-88.71-123.69-99.79l-10.93-19.37c29.25-4.06 26.29 17.5 43.13 27.7 2.12 1.28 48.12 9.48 49.64 9.2 9.02-24.4-45.01-42.22-66.53-52.67-22.42-10.88-65.82-40.72-85.57-12.8l14.63 17.69c-21.65 21.22-32.94 0.87-59.98-0.53-17.35-0.9-56.85 15.27-79.65 20.55l4.67 21.61c17.22 2.87 59.9 0.88 68.67 18.34-16.94 10.51-112.22-39.68-138.36 11.34l21.39 16.91-66.02 8.57z"/>
   <path class="fil4" d="m1694.1 393.97l80.7 21.7c-36.06 7.15-81.61-18.89-98.99-17.33-20.64 1.86-12.03 11.81-11.37 9.26l-45-5.55c-14.91 21.54-0.2 2.18-15.43 14.35 0.72 20.27 9.06 28.84 27.54 34.03l39.78 8.47-30.75-15.76 54.48-4.2c-5.85-18.23-10.74-2.82 5.03-14.69l-12.98-13.43 50.13 15.76-2.55 24.82 17.68 4.1c8.69-12.12 7.85-33.82 24.67-18.06l-15.37 8.46c5.02 7.18 22.28 29.33 29.45 33.07 28.14 14.69 12.3 9.97 28.14 27.84 11.11-9.46-31 5.48 4.03 13.5 16.03 3.67 10.24-2.08 10.5 10.57l59.1 65.17c-14.62 27.73 15.49 55.01 18.65 83.28 1.61 14.47-8.83 29.67 9.39 41.1 24.07 15.1 9.77 14.56 26.5 31.57 20.83-29.29-38.72-124.25-45.77-148.18 17.1 29.34 62.28 91.52 66.13 131.53 3.61 37.59 1.68 35.57 13.2 24.33 9.01 21.4 11.97 5.38 20.32 22.18 4.25 8.55-1.73 13.69 2.55 31.7 5.52 23.26 10.87 46.02 19.05 66.65-3.31 23.46-15.37-12.21-7.41 32.85 3.4 19.25 2.83 22.16 12.2 39.33 8.59 15.73 13.69 20.62 13.68 36.36 0 11.61 4.25 8.98 11.03 31.61l-11.93-6.27c10.53 19.69 0.01 7.62 4.12 27.82 3.66 17.99 8.94 11.45 15.77 33.76l12.09 10.42c-12.94 8.9-7.56-3.97-30.74 10.32l26.24 55.06-75.65-65.03-1.35 38.45c-14.99-28.54-6.95-41.99-30.44-73.6-6.14-8.26-35.13-48.35-39.37-58.3l-93.15-88.04c10.02-4.71 12.52-8.73 11.35-21.1-2.26-23.84-12.54-15.57-13.7-16.77-13.42-13.85 9.74 21.75-1.17-6.57-8.67-22.51-12.64 8.4-29.15-22.36l25.81-18.74c-11.34-15.62-9.53-0.58-23.05-22.53-10.4-16.89-6.8-7.87-20.71-20.02-28.27-24.71-14.35-34.07-11.87-56.91-11.81-19.98-27.51-20.66-37.3-44.37-2.87-6.96-21.13-49.94-22.54-55.53-7.46-28.55-14.78-6.9-32.96-38.16-5.34-9.19-27.8-27.2-38.66-26.69l-131.67-66.08-39.77 24.32 1.36-23.5c-25.61 22.42-10.68 2.9-28.36 1.84-12.73-0.77-28.78 8.92-34.62 20.98-5.6-18.36-12.57-41.16-34.88-36.35-33.68 7.26-12.17 21.27-58.11 96.85-8.74 14.37-9.36 4.35-15.8 7.18-8.51 3.74-6.44 13.95-18.42 21.5-16.94-17.8 18.48-24.47-5.04-44.07-3.28 0.05-26.49 17.04-46.03 21.93-48.58 12.15-18.15 4.06-49.8-0.24-14.53 7.13-15.13 16.99-23.39 18-13.69 1.67-10.65-9.49-30.33 1.72-17.1 30.07 18.85 41.33-20.79 51.35-19.94 5.04-43.61 22.4-58.43 36.32-29.19 27.43-21.64 6.06-44.61 51.41-6.99 13.8-26.13 49.45-36.58 60.4l-9.27-14.64-10.83 9.94-1.48-38.97c-13.75-1.35-12.2 8.99-22.45 17.72-10.14 8.63-9.64 0.41-21.26 1.36-24.58 2.01-27.37 24.41-36.13 37.75-37.52 3.56-27.32-6.01-56.12 26.99-58.93 67.53-66.22 130.15-93.33 168.45-16.34 9.17-80.88 183.01-80.88 183.04 0.14 18.41 11.2-3.22-1.15 26.78-4.87 11.83-10.28 24.19-23.45 25.93l-8.47-26.85-10.12 5.44-5.42-29.67c-13.79 4.63 7.14 15.49-3.57 5.23-0.22-0.21-2.02-9.23-5.99-10.58l-2.6 43.71-7.17-44.1c-18.74 23.12-3.7 20.87-5.79 49.58-1.18 16.29 7.61 8.82-1.11 21.01-18.75-17.49-7.52-99.8 13.7-112.27l3.44 23.9c33.03-31.84-15.95-95.48 20.77-127.55l-6.24-11.49-7.93 17.7-4.62-25.64c-6.38 3.49-3.93 1.94-10.2-9.69-8.98-16.67 0.24-0.54-11.44 2.59-8.24-6.95-15.35-8.68-26.42-10.68-37.56-6.79-6.91 22.36-53.66-24.43l-8.5-46.66c-10.84-0.87 8.19 21.7-23.91 3.35-9.69-5.53-28.73-4.74-32.86-23.18l-11.04 8.77c-8.82-36.55 41.29-76.91 61.17-106.58l-21.03 0.3 15.83-22.33-0.22-18.51c-7.32-22.43-5.99 1.62-2.38-24.5 0.06-0.43 0.13-1.51 0.16-1.93 1.21-15.61-17.15 5.3 0.12-11.23 19.27-21.57-18.4 21.27 19.6-4.12 10.69-7.14 16.94-13.65 20.61-24.04-30.38 2.54-10.99 9.03-31.03 18.65 8.92-10.11 15.25-9.41 25.5-19.53 8.17-8.07 10.48-16.14 18.62-25.4 20.23-23 3.99-27.56 29.25-39.47-3.02-21.01-10.25 15.52-6.68-16.71-23.72 1.22-42.33 11.51-49.57 24.94-12.06 22.36 7.1 12.96-21.61 40.62-58.19 56.06-34.06 64.68-51.18 82.01l-13.62 54.15 28.18-24.47-24.7 57.18 6.83 3.79c0.43 21.17-12.76 28.25-21.35 46.77 3.12 16.94 6.95-0.73 7.55 19.65 0.42 14.16-5.73 10.01-4.55 24.6l-4.54 17.86 7.87 3.2 9.17-21.16c24.03 7.14-2.86 9.77 19.76 12.15 29.05 3.07 30.13-10.52 38.69 8.24l10.44 20.15c17.08 42.34 11.16 35.39 23.26 37.35l-10.96 11.74c25.72 3.4 25.89 15.23 31.74 35.06 8.32 28.19 0.44-0.9 13.99 18.87 6.14 8.96 7.22 15.25-1.24 18.98 26.5 14.05 22.16 13.97 15.62 36.74-5.46 19.02 6.98 44.75 7.07 71.89 0.03 11.12-0.93 41.64 0.89 49.91 4.02 18.34 18.6 3.22 1.13 33.78-19.75 34.55-35 96.47-50.1 117.13-7.85 10.74-33.31 32.22-27.38 49.04 2.48 7.03 8.39 0.85 6.37 9.84-2.35 10.4-7.43 12.65-5.54 25 7.72 5.71 21.51-11.5 15.45 35.11-1.76 13.55 2.37 7.84 12.34 9.42 14.78 2.35 4.04 10.32 12.07 11.36 27.51-25.85-7.68-62.72 28.89-62.95 16.87-0.11 3.71-3.4 7.45-21.98 3.44-17.11 20.8-17.17 30.92-33.66l-24.27 8.46c-0.88-6.46 12.73-22.55-5.54-28.35l-4.18 29.82c-14.09 0.91-27.94-28.06-11.57-43.94 20.29-19.69 28.19 24.25 27.26-13.58-0.42-17.14 4.25-20.18 7.88-34.99 3.49-14.24-1.74-28.77-3.05-43.92-3.19-37.13 19.46-11.26 27.41-50.75l12.36 12.88 1.58-24.72c-8.13 8.43 16.81 13.41 26.86 10.91 9.36-13.46 1.66-21.49 4.84-36.49l54.66-123c12.62-34.88 14.9-45.96 43.84-71.53 0.34-0.3 28.55-60.33 34.11-70.33 37.81-68.01 42.57-83.23 106.9-130.9 43.04-31.9 62.04 6.06 78.37-9.63 8.11-7.79 47.9-50.55 55.9-51.22l7.78 20.94c22.62-15.58 26.54-21.31 54.81-22.55 9.84-13.31 19.44 6.67 61.34-3.15 1.45-0.34 67.43-9.72 71.97-9.67l-2-14.26c24.54-3.62 43.52-25.75 89.62-25.3l-22.9-22.95c25.95-23.24 65.09-25.66 96.65-32.1 3.08-15.08-16.61-6.53 11.71-21.7 13.25-7.1 25.13-15.17 39.75-18.54 4.86-15.33-11.25-0.69 11.11-20.25 7.55-6.6 14-14.65 21.06-22.28 15.26-16.51 27.03-27.28 37.29-47.68 30.96 2.73 35.06-15.47 58.59 17.35 30.87-4.01 1.96-7.12 39.13 7.85l37.41 17.14c20.37 10.83 56.51 31.34 71.23 48.95 6.78 8.11 38.18 71.89 36.73 78.27-13.04 57.22 17.69 29.38 36.02 73.35l-27.27 19.41 19.44 14.49-39.28 0.06-6.72-8.42-72.87 0.23c8.54 29.45 66.64 31.12 119.94 76.69 13.13 11.23-3.31 2.09 17.13 14.02 16.36 9.54 10.07 2.23 23.72 7.86l70.76 57.35c20.12 11.18 66.28 46.49 55.61 71.3l-79.51 4.48c-5.17 25.18-0.36 2.29 6.17 17.98l-12.85 2.76c8.59 22.63 11.77-6.08 8.9 18.75-2.46 21.24-6.15-1.14-7.47 19.01l62.15 10.05c4.47 2.35 14.82 17.54 29.86 23.33 17.32 1.36 42.13 24.91 43.57 47.65-12.21-12.87-7.45-23.74-26.19-27.48l13.99 35.3c12.98 3.71-9.5-13.2 19.82 11.19 16.16 18.76 19.07 2.93 7.93-3.16 23.27-6.64-1.35-12.07 23.26-3.12 28.46 10.35-1.5-1.96 24.55 0.35 19.39-0.01 14.52 9.22 32.27 1.71-15.59-5.77-24.6-5.66-34.28-21.61 10.5-4.57 24.77-4.06 38.99-6.33 5.57-8.21-1.38-5.26 3.21-15.49 10.66 2.15 11.13 3.44 20.3 1.56-16.78-7.67-7.2 2.83-21.47-12.94-4.63-5.12-11.93-14.28-16.01-19.86l18.57-2.87c-4.24 10.66-4.45 4.19 3.28 17.66 42.53-6.65 5.8 7.34 40.16 5.34l-26.06-28.07c1.91-24.7-2.21 5.29 9.01-18.22l-22.39 3.75c-5.73-9.29-3.73-9.84-10.21-17.88-6.51-8.09-8.87-2.9-9.69-14.7 10.01 5.61 0.57 5.28 17.55 5.66-9.88-17.39-6.33-8.5 1.75-11.76 0.97-1.72 17.09 22.29 42.58 5.42-1.13-60.98-40.72-1.08-28.24-38.38l-1.66-10.81c-50.9-5.18-17.72-7.82-40.88-53.57l32.72 6.34-21.71-17.91c5.82-0.71 18.37-1.61 23.39-3.91 16.04-7.38-2.53-13.46 7.52-9.56 22.7 8.81 46.68-6.67 65.27-19.07-30.64-17.87-56.13 33.2-66.47-31.44l-6.64-17.39c-6.78 4.88-0.83 4.87 5.45 2.7 8.39-2.89 0.23 7.97 4.01-3.46 3.35-10.11-11.2-12.89-15.72-23.94-6.99-17.12 6.75-16.12-12.17-51.26l21.57-9.63 8.01 35.22c21.08-8.96 8.48-28.89 8.74-42.37 2.48 16.65-0.06 22.57 16.83 29.76 4.05-12.29-1.96-16.01-6.97-33.11-4.82-16.42-8.47-17.23-7.91-26.04l-80.73 14.45c-6.12-29.36 13.95-0.98 7.39-24.74-2.35-8.53-14.49-21.08-15.54-21.18-7.5-0.71-5.87 15.68-14.29-14.03-6.97-24.61-6.65-6.94-19.45-22.82-11.87-14.73 8.4-4.55-7.03-23.05-8.39-10.04-13.06-16.49-19.28-25.53-3.44-5-20.31-47.51-19.21-54.79l20.47 22.82c1.07-31.28-74.5-87.9-78.6-113.47l16.8 6c-3.59-3.74-17.58-13.73-4.74-21.55-21.09-0.74-77.96-45.38-101.68-29.08l21.64 13.87-33.61 5.67 11-7.49c-18.42-17.6-4.62-8.52-8.14-32.42-21.19-14.47-39.19-5.66-49.99-24.5 6.79-13.09 6.44-8.47 24.43-4.41l-8.51-4.81-30.07 4.09c5.83-15.74 13.71-11.28 32.41-16.77-13.81-16.07-17.16-27.96-39.24-29l5.73 8.61c-39.02-7.16-11-10.84-44.77 3.65l65.39 7.05c-2.72 25.22-51.34 6.26-54.18 20.01 15.19 9.08 8.55-13.81 22.92 10.03l-15.11 3.07z"/>
   <path class="fil5" d="m984.81 1855.5l-55.73 24.16-15.15-12.56c-11.8 12.55-4.57 16.86-19.9 28.09-7.91 5.8-21.86 8.8-23.9 10.32-4.86 3.62 4.86 7.95-5.27 16.44-9.63 8.07-22.75 5.6-13.53 23.81 9.96 2.32 4.07-5.82 10.51-6.41 6.56-0.6 2.61 5.49 16.28 6.68 13.32 1.16 27.77-1.99 34.09-14.47-4.98-2.99-40.14 0.31-22.85-19.17 9.74-10.97 8.46-5.91 23.71-27.21l25.44 6.43c-12.06 11.55-31.86 7.01-31.43 26.68l24.48 6.92-20.47 27 36.49 42.82 18.57-12.01c-14.74 31.11-22.37 16.9-2.74 31.45l-11.68 11.82c18.42 7.48 26.92-21.14 34.86 0.52l-28.73 16.27 15.41 24.46c-15.12 25.29-32.05-0.91-9.49 43.11l-39.32 24.34c22.81 34.94 37.31 10.67 55.99 11.84l-17.35 10.63c18.32 27.75 29.63-1.61 45.98 0.16l-12.2 23.87 18.36-2.3c-2 16.59-19.05 18.94-4.09 33.33l24.3-32.35 1.13 29.17 20.39-7.82 7.86 10.28-1.04-0.07c2-24.14 8.13-25.39 1.74-48.12-4-14.21 3.39-23.43 17.65-30.09l-1.48 24.22 13.46-8.96-11.66 30.93 30.95-14.9c-4.32 15.01-10.38 0.38-12.85 18.63-1.97 14.55-1.46 8.08-8.36 24.36l14.98-2.83 0.76 31.83c14.18-22.03-2.17-51.24 18.44-55.63 1.64 7.85-13.38 4.14-1.18 19.34 27.55-7.25 16.35-19.62 7.06-35.41l56.1-4.21-5.73 29.58 23.21-5.24c-21.51 4.41-17.42-1.87-18.85 20.07-1.04 15.86-6.05 18.09-5.92 28.08l12.4-11.79c18.51 25.95-3.96-9.49 23.27 5.5 4.55 32.94-8.64 25.66-15.36 42.61-10.25 25.84 5.06 32.66 7.2 52.28l1.97 25.84 18.7-26.18 2.2 13.13 13.18-18.03c8.69 13.65-30 71.94-19.45 95.8l21.81-15.92-3.51 30.95 13.92-3.71 11.54 31.55 14.19-4.45 2.32 22.82c17.28-21.63 30.71-33.16 34.95-62.7 30.95 23.38 14.3 21.81 12.04 30.9-2.02 8.16 4.15 22.27 4.83 32.54l4.78-18.48 6.68 11.44c9.08-25.32-4.28-35.93 11.2-53.29 2.01-2.26 23.88-24.7 25.16-25.11l2.57 29.9c15.47-4.54 17.4-21.02 12.24-32.82 3.86 27.05 27.87 4.96 33.52-10.81l-3.82 23.64c26.57-9.27 18.87-25.4 48.62-24.21-0.46-25.42 31.5-41.49 16.3-76.45 23.99-8.26 9.08 10.98 30.5-23.9l42.02-60.73c12.63-11.57 8.29 6.45 13.05-8.59 7.65-24.15 26.18 6.93 16.41 28.58l10.04-2.85c23.42-27.97 37.11-75.15 36.83-75.42 15-3.32-26.61-7.36-18.29-26.15l-11.32-19.58-40.12 66.55c-16.1 5.98-8.87-6.25-16.47 8.81-10.51 20.81-8.82 1.68-7.61 26.2l-11.29-9.03c0.91 25.15-0.16 5.61-8.98 28.53-2.26 5.85-11.48 35.95-10.73 36.5l-17.58-5.71c-2.89 8.52 7.52 8.97-15.64 17.86-11.79-28.3 8.85-15.99-1.41-43.68-0.19-0.52-0.5-1.58-0.68-2.1-8.16-23.35-8.87-6.72-23.41-26.4l9.83-0.92c-5.06-5.45-18.72-8.01-32.19-16.12-20.39-12.28-9.42 9.87-32.88-3.77 11.58-18.02 15.81 8.41 14.18-13.15-1.22-16.05-7.19-6.51-13.13-22.44l31.82-0.66c-13.68-16.55-44.71-1.87-62.66 0.27-13.43-27.68-19.38-16.08-35.94-23.16-38.57-16.48-27.46-2.41-48.64-8.45-21.27-56.28 30.64-16.71 16.29-48.48-20.05 5.25-22.16 24.38-41.52-3.52 5.18-6.96 48.27-27 44.47-10.31 6.41-27 29.82-13.73 44.26-14.82 36.53-2.76 23.95 4.48 45.59 5.06 21.23 0.57 9.61-9.75 19.7 2.19l25.47-17.1 9.23 15.21c13.65-6.45 56.24-2.58 53.64 9.2-3.17 14.37-15.32 7.23 8.49 20.09 26.72 14.44-0.49 7.34 17.9 25.26 4.2-20.54-7.35-19.38 10.81-30.99-22.65-14.08-5.11-12.46-18.32-21.45-9.1-6.19 0.28 3.46-25.27-13.79-30.54-20.61-31.67-9.25-48.93 0.53-27.38-22.17-9.06-6.5-33.86-13.77-14.4-4.22-13.24-15.35-30.81-9.77-14.5 4.6-19.49 13.05-38.87 8.46-12.73-3.01-25.24-8.58-38.33-3.97-14.95-21.83 1.45-11.59-22.77-23.35-7.08-3.44-25.41-8.9-18.9-24.24l-28.05 3.64c18.06-0.5 18.13-2.16 16.27 14.83-13.01-1.78-37.97-5.76-44.24-15.77-9.45-15.08 9.4-8.11-11.63-15.83-2.42-0.89-75.95-0.89-85.04-54.41 15.67-5.2 7.59 0.73 11.67-1.22l26.49-12.6c2.46 6.75 9.17 25.75-1.99 19.63l17.89 5.42c-7.41 16.1-16.42 4.81-9.03 24.09 17.46-14.46-3.99-6.74 27.91-22.21 10.07-4.89 18.85-11.98 35.92-12.83 31.19-1.54 34.1 13.94 39.03 14.39 18.02 1.63 20.67-16.91 41.22 6.18 13.71 15.4 18.58 4.92 38.07 4.56 20.95-0.38 8.54 2.65 20.26 6.58 17.42 5.85-1.68-1.96 16.44-0.41 18.52 1.58 17.63 10.74 38.35 8.27 21.38-2.54 15.49-13.78 27.69-19.27 16.25 16.42 61.9 16.25 85.52 14.07-39.33-8.99-70.95-18.05-107.18-32.48-50.57-20.14-64.07-15.9-114.22-17.05-13.11-7.22 0.7-8.65-32.74-18.98-11.06-3.42-26.33-10.34-36.52-13.12-25.37-6.93-44.17 16.43-83.32-2.07-61.17-28.91-74.66-5.59-105.01-9.87-22.36-3.16-20.69 4.25-33.16-13-5 2.85-7.76 8.27-8.29 8.53-5.38 2.6-8.94-4.45-27.04 17.17z"/>
   <path class="fil6" d="m1076.8 403.01l-92.09 68.69c-21.02 16.78-15.95 0.39-26.63 25.45-9.1 21.36-98.71 41.93-105.08 44.91-14.78 6.92-24.12 12.17-42.38 15.95l16.51 8.06c-32.08 23.2-8.47-0.99-31.87 33.19-12.16 17.77-15.05 23.04-39.27 27.72-3.68 16.14 0.39 27.64-28.18 22.04l-10.75 0.26c11.93 10.67 1.94 3.49-0.84 13.75-3.99 14.74 0.56-7.77 5.5 7.77l-12.48 14.31c18.52 2.36 47.33-36.38 76.31-46.67 6.88-2.44 0.03-11.04 21.76-25.08 21.8-14.09 23.18 12.77 44.53-6.5l-25.62 2.46c-1.28-19.38 4.08-13.9 15.64-21.43 14.35-9.36-0.93-5.56 10.54-13.82 23.95-17.25 23.96 9.77 43-1.59 17.69-10.56 46.34-67.53 94.26-34.68-18.18 19.77-20.14 42.54-48.74 45.41l23.59-19c-10.52-7.41-29.27-4.11-38.07 4.53-18.12 17.78 1.49 12.35-34.54 15.29l-25.47 51.28c-24.64 1.06-16.22-13.98-36.26 21.67-6.23 11.08-45.22 39.37-58.16 42.08l13.36 8.3-27.59 62.99c8.33 3.29 25.2-15.52 33.46 1.23 6.2 23.57-9.35 49.94-29.47 57.79-25.65 10-14.62 23.91-34.49 40.76 6.96 2.95 17.72-9.31 13.85 15.3-8.24 52.41-39.29 96.83-33.31 121.99 27.11-38.3 34.4-100.92 93.33-168.45 28.81-33.01 18.6-23.44 56.12-26.99 8.76-13.34 11.56-35.74 36.13-37.75 11.62-0.95 11.13 7.28 21.26-1.36 10.25-8.73 8.7-19.07 22.45-17.72l1.48 38.97 10.83-9.94 9.27 14.64c10.46-10.95 29.59-46.6 36.58-60.4 22.97-45.36 15.41-23.98 44.61-51.41 14.82-13.92 38.49-31.29 58.43-36.32 39.64-10.02 3.69-21.28 20.79-51.35 19.69-11.21 16.64-0.05 30.33-1.72 8.26-1.01 8.86-10.87 23.39-18 31.64 4.3 1.22 12.39 49.8 0.24 19.54-4.89 42.75-21.88 46.03-21.93 23.52 19.6-11.9 26.28 5.04 44.07 11.98-7.56 9.91-17.77 18.42-21.5 6.45-2.83 7.07 7.19 15.8-7.18 45.93-75.58 24.43-89.59 58.11-96.85 22.31-4.81 29.29 17.99 34.88 36.35 5.84-12.06 21.89-21.75 34.62-20.98 17.69 1.07 2.75 20.58 28.36-1.84l-1.36 23.5 39.77-24.32 131.67 66.08c-5.41-19.88-4.41-10.22-17.9-23.38-20.69-20.21 3.99 3.35 1.08-16.05-29.14 10.64-45.22-8.1-74.62-18.89-18.09-6.64-26.27-1.75-31-17.88-7.9-26.92 11.82-30.91 8.04-26.22l-18.31-22.04 12.28 0.05c-7.64-13.98-19.27-19.38 0.78-24.77 35.49-9.54 5.37 9.24 37.13 7.91 5.93-59.22-102.2-7.96-148.13-15.85-17.86-3.07-9.79-6.6-15.51-9.85-9.6-5.45-4.18 8.38-20.44 2.23-11.15-25.52 10.75-17.58 7.88-34.75-14.62-5.28-38.98 14.2-24.22 43.19-21.05 15.27-34.28 44.88-59.21 43.1 1.15-15.2 53.73-45.24 37.91-74.59-12.51 10.04-7.54 19.85-19.53 32.77-6.93 7.46-19.64 16.7-27.87 25.1-14.39 14.7-18.61 58.55-47.74 57.34l-15.65-28.19 18.05 9.27 8.14-35.49c-25.25 2.29-30.29 1.25-18.96-27.59l-17.42 4.36 1.93-17.12 14.24 0.58c-0.46-18.88-37.66-21.15-52.39-4.19-5.51 6.35-35.08 3.69-41.17 0.8l60.65-42.14c-37.95 16.62-84.86 34.36-115.28 60.07z"/>
   <path class="fil7" d="m1078.8 1547.7l19.44-2.04-5.93-7.83 20.27-13.88-11.83-6.29 150.35-21.77 15.2 16.34 21.65-9.13-11.64-9.6 20.5-16.43 9.16 9.71 24.25-18.91-19.81-5.2 4.94-34.89 55.64-14.07-11.85-39.79c21.54-2.54 28.73 11.07 40.43-4.12l-21.57-3.76 13.59-33.45c-30.46-0.92 0.48 34-32.53 32.58-13.53-22.84 7.16-28.11 15.4-43.26-25.92-19.6-21.35 5.51-41.25 1.49-23.12-4.67-25.38-9.66-51.17-4.66-42.93 8.31-55.83 24.95-88.37 1.93-27.3 0.4-41.69 3.63-68.14-9.23-7.37-3.59-55.39-27.08-55.93-27.65l16.83-5.93-13.86-16.2-44.91-14.32c-55.06-0.23-25.99 9.03-57.36 17.57-21.25-6.91-9.15-15.56-25.85-9.44-11.59 4.25-16.83 8.99-31.95 4.17l12.34-17.01c-29.99-4.35-27.63 30.72-30.42 33.27-14.85 5.74-45.49-2.07-33.39 23.43l26.85-8.31-11.69 26.42 21.63-4.02-36.26 35.05 30.33-14.96c2.76 10.82-6.51 12.54 1.08 31.02 6.04 14.72 11.77 8.63 17.54 17.08-14.49 14.59-41 41.08-59.24 47.15-16.96 5.63-7.3 8.96-11.56 22.31-5.72 17.91-14.58 6.61-22.62 21.38l39.57 5.55 13.99-19.44 2.44 25.55c34.02 13.1 27.46-25.32 56.45-9.87l-14.62 29.78c10.17 12.06 11.52 6.58 26.43 3.3 9.54 33.82 22.1 19.41 41.01-0.65l13.74 15.06-46.89 31.26 2.6 11.24c-37.27 12.8-51.36 21.63-80.24 45.84l5.87 42.17c19.36-2.59 29.95-10.96 47.35-22.87 6.55-4.48 10.15-9.09 17.59-14.66 26.54-19.88 11.94 12.42 47.65-26.05 15.19-16.36 3.1-14.29 38.83-19.01l-1.05-20.78c28.82 6.21 20.51-3.09 50.98-1.18z"/>
   <path class="fil8" d="m1584.5 1147.5c0.56 70.95-36.49 77.39-56.32 119.45-6.75 14.33-2.44 31.94-25.88 33.14-17.16-10.97 5.15-9-15.14-24.38-12.99-9.84 0.77 5.11-10.52-7.03-2.42-2.6-0.88-4.3-6.54-11.79-9.21 8.28-26.23 4.78-47.83 14.88-61.43 28.75-70.24 24.64-150.02 25.85-42.18 0.64-67.87-14.9-105.92-17.98-84.83-6.89-42.54-1.96-66.8-14.09-10.93-5.46-12.1-1.81-27.05-3.9l13.86 16.2-16.83 5.93c0.55 0.57 48.56 24.06 55.93 27.65 26.45 12.87 40.84 9.63 68.14 9.23 32.54 23.02 45.44 6.38 88.37-1.93 25.78-4.99 28.05 0 51.17 4.66 19.91 4.02 15.34-21.09 41.25-1.49-8.24 15.15-28.93 20.42-15.4 43.26 33.01 1.42 2.08-33.5 32.53-32.58l-13.59 33.45 21.57 3.76c-11.7 15.19-18.89 1.57-40.43 4.12l11.85 39.79-55.64 14.07-4.94 34.89 19.81 5.2-24.25 18.91-9.16-9.71-20.5 16.43 11.64 9.6-21.65 9.13-15.2-16.34-150.35 21.77 11.83 6.29-20.27 13.88 5.93 7.83c29.67-3.94 41.55-11.66 62.52-12.74 33.77-1.74 5.38-5.03 46.37-16.6 15.41-4.35-6.38-7.01 14.07-5.02-2.42 5.39 3.61 17.47-41.31 37.27-19.29 8.5-37.6 17-56.35 28.26-26.04 15.65-33.14 6.95-57.12 24.7-19.18 14.2-15.56 5.38-29.15 9.18-16.92 4.73-5.76 14.52-21.33 12.8l44.82-9.56c-0.25 15.05 6.6 19.3-10.98 16.86 23.14-1.61 23.66 6.96 39.85-0.25 14.9-6.64 26.48-21.71 40.2-4.82-8.9 15.74-5.93 9.95-27.51 10.09l57.05 18c-18.56 11.39-31.53 7.28-51.21 4.58-39.99-5.49-26.43 1.87-45.23 6.76l10.57-22.27c-18.58-3.69-10.87-5.95-43.76 14.96l8.81 1.46-39.52 24.2 25.37 5.29-40.24-0.29 2.75 7.81-27.23 5.04c12.81 12.03 23.68 1.56 10.87 26.32 8.23 3.16 14.05-0.05 23.82-6.87 21.3-14.86 4.06-6.5 7.84-17.72l36.36-2.84c5.64-14.2 4.52-9.07 20.09-12.01 17.73-3.34 12.75-4.94 25.64-6.1l-8.6-8.52c18.08-8.9 40.76-13.4 54.04-5.62l-36.36 15.95c10.69 9.79 54.18 6.14 68.53-1.07 22.67-11.39-11.19 3.02 6.01-8.53l32.94-2.03 1.52-14.69c-15.37-9.37-39.39 2.86-50.59-17.54 13.57-1.13 15.9 4.95 35.46 6.19 27.43 1.73 12.96-1.56 29.93 15.34l-1.04-15.64 36.14-16.51c18.9 10.21-7.32 11.19 35.85 9.65 38.16-1.36 29.48 12.04 45.64 21.72l-0.03-9.63c6.65 2.12 20.79 14.83 26.68-7.74-19.85-11.6-24.83 9.94-29.64-15.88-7.07-37.94-46.61-66.18-20.41-110.24 16.74 7.59 7.82 6 10.45 28.6 22.91-12.69 30.11 1.62 53.25-0.28 33.02-2.71 33.46-10.46 73.63-5.56 36.54 4.46 42.82-9.76 61.95-9.58 8.74 0.09 69.57 2.26 70.75 2.96 24.07 19.4-21.28-2.5 20.13 24.64-15.66 46.16 12.81 28.63 40.04 25.12l-3.5 21.78c18.04 6.82 13.95-1.64 25.05-6.87 8.83 16.16 30.04 23.37 46.51 17.04 11.29-4.33 12.3-9.08 21.78-14.19 16.53-8.9 11.49 0.96 28.77-7.33l1.54 7.33 7.47-9.98c-14.99-11.08-27.52-39.39-47.12-33.24-46.42 14.56 10.83-8.16-80.87-6.34-11.99-20.22 5.43-12.38-16.84-23.08-38.45-18.48-79.76-7.28-116.77-5.47-45.22 2.22-116.93 4.55-158.07-5.18 21.59-68.19 97.55-44.77 126.78-43.37 48.8 2.34 4.69-1 34.79 14.12 9.32-10.54 7.08-15.7 12.03-21.19 3.77-4.18 6.29-1.55 15.73-12.76 25.12-29.85 20.34-9.7 35.96-24.27l-17.85-15.52 28.19-23.1-25.33-45.58 9.03-64.14c9.35-15.91 10.61 5.13 20.84-25.38 5.91-17.62 10.25-22.79 12.11-40.37 1.32-12.5 6.99-38.13 7.07-43.79 0.3-20.45-8.51-18.61-9.59-42.29-5.29-8.64-0.06-5.93-13.56-8.66l-0.11 26.11z"/>
   <path class="fil9" d="m1321.9 1842.1c21.19 11.47 39.77 5.02 63.79 15.57 51.19 22.47 22.45 5.75 61.42 5.4l-18.1 5.07c12.67 4.84 28.58 6.3 38.46 10.73 13.23 5.94 17.11 13.02 23.63 17.07 29.51 18.36 31.95 2.96 58.47 7.04 21.45 3.31 105.18 52.78 85.04 83.94-30.47 11.78-59.79-47.69-102.29-50.6 9.36 9.59 14.42 7.69 25.47 14.12 12.96 7.53 32.2 27.05 40.34 38.43 9.7 13.58 20.44 2.13 27.58 54.36 0.78 5.71 0.88 8.78 1.41 13.58 3.62 32.7-37.31 42.87-14.1 59.74l-0.05-3.4c14.82 16.42 8.48 32.39 32.68 40.88 12.18-25.62-1.5-8.33-4.71-20.79 16.85 4.77 12.98 6.68 20.01-7.74l-10.43-3.97-0.9-23.76 18.34-3.15-3.76-25.08c43.47-26.6 13.36-11.15 34.39-41.03 16.01-22.74 22.81-8.61 20.22-31.21-2.88-25.06 4.09-4.99 18.85-40.11 3.99-9.52 7.24-40.89-3.91-42.86l-21.52 22.11-4.74-27.01-2.77 30.82-18.3-35.17c9.29-12.86 2.2 5.33 7.77-2.39 0.26-0.35 0.74-9.47 2.77-13.41l13.87 12.79-7.44-30.7 9.77 7.24c-12.27-16.96-20.51-67.26-40.11-73.55l9.18 13.62-28.61-3.92c1.49-29.63-4.67-8.05-6.32-32.05-1.94-28.23-2.14-14.43-18.55-32.9l18.34-10.8-23.02-21.07 15.8 3.21c-2.39-30.49 8.95-26.72 37.36-25 21.33 40.14 48.67 177.2 71.15 203.2 14.07-33.51-2.55-11.05-5.11-46.48-2.1-29.12-9.37-27.94-14.25-55.74-5.51-31.36-5.76-27.96-19.01-55.04-10.91-22.31-8.23-41.3-15.35-58.43l26-26.1 10.15-28.14c-11.83 16.7-54.06 4.52-77.89 7.64-44.11 5.77-57.09 36.69-71.66 20.26-2.56-2.89-0.37-72.63-55.37-87.04l-4.56 14.79c-24.03 2.17-56.59 22.73-74.88 20.78-25.24-2.69-46.31-25.86-49.28-49.09-37.24 20.08 2.53 27.78 15.56 59.2 11.91 28.72 32.23-7.6 60.08 21.34l-23.27 56.92-28.44-1.6c-12.59 15.96-16.8 42.17-2.65 58.35 27.39-0.47 18.38-41 6.43-36.62 27.16 21.03 27.66-5.31 23.72 35.05-1.08 11.08-2.61 2.75-13.16 9.7-9.39 6.19-10.01 16.38-14.25 18.69-24.13-20.71-3.82-60.38-17.69-74.85-10.51 3.79-6.71 17.79-12.38 25.8-2 2.82-21.94 13.29-27.4 16.28-10.61 5.8 0.51-22.82-8.52-29.01l-26.75 9.58 14.11 17.8c-7.72 6.6-37.24-3.2-26.02 30.73 4.87 14.73 26.28 38.96 44.17 31.07 20.55-9.06-4.98-13.88 24.97-5.63 10.96 3.02 9.25-3.42 19.24 2.48 9.08 5.36 6.64 10.23 15.21 13.31l19.15-25.24 28.45 47.25c25.46-19.62 10.2-34.5 51.18-15.5 42.97 19.92 18.55-13.65 54.32 29.84 21.95 26.69 41.3 4.86 56.53 16.43 10.84 8.23 12.37 48.08 35.5 42.39 6.36-21.5-33.44-63.65 6.06-68.99 22.07 13.86 6.37 81.66-4.21 96.69-17.85 8-49.07-13.89-66.23-22.27-48.9-23.88-58.59-13.72-94.26-25.65-25.54-8.54-25.95-27.43-77.45-35.4-30.26-4.68-78.42-13.59-107.23-12.83z"/>
   <path class="fil10" d="m703.26 1863.5c10.98 38.52 71.2-4.66 77.7-6.63 10.39 5.88 5.18 11.2 10.51 12.5 4.96 1.21 4.62-6.5 18.04-1.58 31.93 43.8-4.16 39.58-12.87 57.94 9.17 31.73 41.86-11.35 19.56 50.61l27.26-11c-8.27 7.11-20.39 18.22-12.66 28.51 13.14 1 6.38-24.53 35.62-10.59 18.51 8.82-11.49 6.84-14.28 34.87 15.52 28.27 40.54-4.91 60.42-15.91l25.22 13.79c-21.7 31.61-20.06-8.74-50.01 24.86-0.78 11.79 5.86 7.17 12.2 12.39 5.41 4.46-5.76 5.79-5.96 18.77l11.4 4.16-34.96 40.97c30.53 0.8 51.31-39.52 64.38-21.68-9.82 25.21-46.55 3.1-35.49 52.35l17.06-4.17-14.86 16.72 28.93 8.02c-6.41 27.77-18.1 29.07-43.31 34.05l8.85-26.61c-12.36-0.78-45.92 5.7-48.36-14.13 16.09-14.72 44.76 22.71 46.31-7.65 2.09-40.85-30.97 0.66-37.07 2.56-3.53-2.46-13.34-50.9-35.14-10.25-16.31 30.42 33.98 24.92 11.48 55.39 24.65-10.27 2.8-18.21 39.49-16.09-17.07 0.41-20.82 5.83-23.53 22.52 14.07 7.79 8.72-8.36 12.81 8.85 22.54-7.42 7.87-9.78 26.7 0.39l-6.34 10.72 27.91 20.96c45.44-24.86 11.3 12.51 36.29-0.52l-21.35 21.69c27.35 13.43 28.74-16.38 39.66-31.77l-0.91 14.92 14.83-15.88-7.35 18.6c48.14 9.13 26.75 3.97 23.8 33.43 16.84 0.33 26.75-4.21 26.11-23.02 12.37 38.12-8.15-0.88-2.52 39.31-10.29-13.39 4.73-15.7-9.21-15.43-28.46 0.56 28.96-81.9 26.94-81.13l-1.13-29.17-24.3 32.35c-14.96-14.39 2.09-16.74 4.09-33.33l-18.36 2.3 12.2-23.87c-16.34-1.77-27.66 27.6-45.98-0.16l17.35-10.63c-18.67-1.18-33.18 23.1-55.99-11.84l39.32-24.34c-22.56-44.02-5.63-17.82 9.49-43.11l-15.41-24.46 28.73-16.27c-7.94-21.66-16.44 6.96-34.86-0.52l11.68-11.82c-19.63-14.55-12-0.34 2.74-31.45l-18.57 12.01-36.49-42.82 20.47-27-24.48-6.92c-0.43-19.67 19.37-15.13 31.43-26.68l-25.44-6.43c-15.25 21.3-13.97 16.24-23.71 27.21-17.29 19.48 17.87 16.17 22.85 19.17-6.33 12.47-20.77 15.63-34.09 14.47-13.67-1.19-9.71-7.28-16.28-6.68-6.44 0.59-0.55 8.74-10.51 6.41-9.22-18.21 3.9-15.74 13.53-23.81 10.13-8.49 0.41-12.82 5.27-16.44 2.04-1.52 15.98-4.53 23.9-10.32 15.33-11.23 8.09-15.53 19.9-28.09l15.15 12.56 55.73-24.16-23.17 4.31c7.2-22.32 7.43-9.33 2.8-14.49-8.8-9.82-7.39 5.93-4.28-2.47 5.49-14.89 8.97-9.04 8.07-23.9-0.46-7.57-1.06 0.62-1.52-10.42-0.4-9.8 5.88 5.43 0.59-9.96l-26.46 20.54c-9.22-16.83 3.75-31.42 11.7-43.08l4.45 13.49c24.34-27.47 16.02 10.15 31.8-17.56-20.19-11.88 8.1 4.27-18.27-1.56-11.01-2.43-10.04-2.71-20.15-7.35l20.09-35.33c12.81-24.76 1.94-14.29-10.87-26.32l27.23-5.04-2.75-7.81 40.24 0.29-25.37-5.29 39.52-24.2-8.81-1.46c-13.33 7.88-19.02 10.61-31.7-3.1l9.24-17.35c-26.22-6.88-54.37-0.25-66.18 25.64-7.85 17.2-13.65 14.78-26.28 25.83-13.12 11.48 14.36 11.16-23.8 50.76-10.6 11-1.31 6.99-1.7 27.41-0.63 33.75-4.57 9.16 6 31.78 4.38 9.37-7.75 13.63-5.47 25.09l25.48-7.9c10.95 19.2-9.65 55.64-22.62 70.24-0.1 0.04-23.63 5.5-27.43 6.53-11.36 3.07-12-5.17-33.54-2.98-2.23-8.16 10.78-4.98-4.23-16.75-13.02-10.21-0.84-1.6-3.19-18.53l-35.8-30.99-24.94 8.63c-11.01-13.99-12.33-32.17 4.29-43.63l-0.92 16.75c20.29 5.08 43.58-21.14 51.43-39.38l-21.64 3.49c-8.15-11.49 4.45-10.86-28.6-4.38 28.33-37.58 17.98-32.91-18.16-23.26l-3.02-18.3c-13.59 15.26-33.14 51.54-50.05 50.35l6.97-60.46c-1.69 0.95-42.79 33.2-44.1 34.89-28.12 36.19-44.01-2.8-46.07 30.12l23.86 0.22-1.21 14.83 20.32-20.81-1.5 33.04c15.47-8.07 10.16-28.44 33.94-28.93l14.22 86.81z"/>
   <path class="fil11" d="m1226.3 324.07c14 0.5 35.69-1.58 48.88-8.4l3.01 19.1c0.08 5.99 2.42 1.44-1.39 9.53l-13.03-7.95c-11.22-3.44-19.35 7.39-27.9 21.68 7.65 22-3.98-2.63 17.05 11.65-1.91 8.28-0.28 7.75-12.7 17.13-7.78 5.88 6.34 0.72-8.21 5.12-2.71-7.96 3.42-9.85 2.26-16.92-12.95-2.93-29.48-12.28-43.66-13.16 4.4-0.37 3.78 1.03 11.91-2.52 0.75-0.33 4.29-1.47 6.54-4.38l9.63-22.55c0.39-0.78 0.86-1.86 1.22-2.56 0.17-0.33 4.05-6.71 4.25-6.94-30 7.11-62.94 18.02-91.39 30.89-18.89 8.55-58.05 40.29-74.67 40.31l26.43-21.68c-1.2-1.92-25.58-14.42-46.06-2.59-0.04 0.02-20.14 24.99-55.07 11.15l21.52-10.64-14.74-8.18 36.04-9.37c-23.51-18.98-32.79 9.86-49.86-7.95-9.34 21.89 11.89 2.52-21.28 19.62-0.58 9.95 16.66 14.85-20.27 17.94l-31.28 3.57c-16.24 7.55-13.49 2.07-29.39 4.85-18.72 3.27-8.49 2.52-24.85 12.2-30.69 18.17-113.33 76.55-133.67 62.29l-10.35 11.49-88.16 44.78 0.54 6.72 62.6 16.12 0.69-4.28-10.98 6.53 51.25 3.29c-3.37 28.61-34.43 12.51-38.69 12.65l-36.03 2.34 15.95 12.75c-33.21-0.81-16.06 8.61-51.54-4.23-17.91-6.48-36.04-14.25-48.59 4.55 7.94 17 50.44 19.57 71.21 16.85l-41.17 29.97c15.79 11.7-0.3 4.41 3.5 18.87l61.62 0.76c-5.43 14.24-15.95 10.12-10.57 31.04 28.78-0.25 19.83-13.48 33.82-24.31 18.32-14.17 11.01 7.37 36.35-1.95l10.75-0.26-5.57-11.48 15.6-10.58-38.21 7.49c9.39-12.48 8.8-5.12 19.2-16.91 12.32-13.97-0.48-0.08-0.52-9.64l37.82-10.81c-4.21-16.89 1.71-18.6-18.87-13.09 32.16-7.48 7.6-10.14 19.64-16.25l87.38-40.94-16.48-2.21c16.88-5.54 14.07-3.47 12.29-12.76-15.48-4.04-13.76-1.83-26.27 4.83-13.91 7.4-9.33-1.1-33.66 4.17-38.09 8.24-21.56 23.28-68.29 18.75 4.85-11.02 26.51-22.78 39.76-27.6 25.16-9.16 22.35 8.12 48.71 8.45 26.45 0.32 23.04-19.95 41.09-18.77 15.03 0.99 25.6-3.83 40.42-15.35l-35.46 10.5c10.41-21.9 21.58-12.21 32.11-28.21 19.52-29.67 0.21-7.29 33.17-26.85 42.63-25.31 41.02-24.1 94.86-16.24-8.54 2.35-55.43 21.73-63.1 26.54-20.69 12.97-1.85 6.46-16.35 22.67-12.49 13.96-20.8 12.36-31.42 18.06 25.3 28.06 11.18-31.33 49.51-19.46l-2.79-14.99c27.42-2.46 21.42-7.09 37.86-15.16 21.98-10.78 24.44 4.05 96.59-40.12 30.41-25.72 77.32-43.45 115.28-60.07l-60.65 42.14c6.09 2.9 35.66 5.55 41.17-0.8 14.73-16.95 51.93-14.69 52.39 4.19l-14.24-0.58-1.93 17.12 17.42-4.36c-11.34 28.84-6.29 29.87 18.96 27.59l-8.14 35.49-18.05-9.27 15.65 28.19c29.13 1.21 33.35-42.64 47.74-57.34 8.23-8.41 20.93-17.64 27.87-25.1 12-12.92 7.02-22.73 19.53-32.77 15.82 29.35-36.76 59.38-37.91 74.59 24.93 1.79 38.16-27.83 59.21-43.1-14.76-28.99 9.6-48.47 24.22-43.19 2.87 17.17-19.03 9.23-7.88 34.75 16.25 6.14 10.84-7.68 20.44-2.23 5.72 3.25-2.36 6.78 15.51 9.85 45.94 7.89 154.07-43.37 148.13 15.85l29.44 9.84-2.87-15.39c-12.59 0.06 5.34-19.19 13.57-25.75l-29.6 1.38 3.71-9.87c0.13-0.26 10.61-15.34 5.27-21.26l-12.54 15.11c-29.48-8.99 1.7-21.42-25.29-10.76-13.03 5.14-18.63 6.75-35.8 6.37-10.21-18.12-8.63-12.63-25.56-14.64l-0.86-11.58 2.16-1.01-4.54 10.32c-24.15 1.96-27.98 13.8-49.22 7.2-27.23-8.46-19.9 1.93-40.83-8.06 1.16-18.64 8.1-1.72 1.42-24.4-14.2-4.52-23.84 3.76-37.3-8l4.06 20.51c-0.03-0.09 0.07-9.22 9.68 2.12-16.32 32.65-23.22-6.37-36.76-10.34-19.28 33.06 11.03 18.94-0.23 33.9-11.72-2.93 3.82-13.54-17.02-7.69-2.33 23.8 5.68 0.25 12.34 19.71-15.76 15.79-10.62-0.82-18-4.72-8.38 13.52-8.63 26.33-23.51 27.18 3.09-21.12 14.14-12.68 18.92-36.88 5.8-29.36 5.74-20.11 21.32-22.62l-1.79-22.98c-24.22 1.41-7.78 9.1-24.96-2.64-15.76-10.77 2.5 2.53-13.88-3.35l1.7-9.72c20.22 0.89 54.53 10.31 73.01-7.46l-43.13-14.91c-44.31 26.39-56.25 6.4-80.34 15.91l36.46 8.86 1.11 5.58-35.37 20.18z"/>
   <path class="fil12" d="m513.26 1907.1l-6.12 52.91-13.08-15.5-2.81 26.1 35.81-2.84c12.11 18.14-1.87 33.17 27.73 34.15l-1.8 23.44 30.11-4.21-8.8-47.77c16.22-2.16 38.48-13.31 62.05-4.22l-52.97 9.78c1.4 9.28 7.6 4.47 5.84 8.88-2.07 5.17-7.08-3.06-7.81 8.65 10.25 32.41 43.56 19.17 63.13 20.65l12.7 48.64c38.2-6.12 16.41-7.18 31.97 7.18 10.74 9.92 23.98 3.95 40.08 6.17l-18.36 42.03 62.55-8.91-20.32 14.62c37.46 11.21 21.45 3.66 27.01-6.21l28.79 3.38c-13.36 12.48-21.62 17.71-10.93 29.67-35.77 7.24-11.92-17.44-52.88 15.5 1 3.74 18.09 9.74 0 11.99 44.5 5.63 59.13-19.24 74.8 20.59l13.33 0.03c22.49-30.47-27.79-24.97-11.48-55.39 21.8-40.65 31.61 7.78 35.14 10.25 6.1-1.9 39.16-43.41 37.07-2.56-1.55 30.36-30.23-7.07-46.31 7.65 2.44 19.83 36 13.35 48.36 14.13l-8.85 26.61c25.21-4.98 36.9-6.28 43.31-34.05l-28.93-8.02 14.86-16.72-17.06 4.17c-11.06-49.25 25.68-27.15 35.49-52.35-13.07-17.84-33.86 22.48-64.38 21.68l34.96-40.97-11.4-4.16c0.2-12.98 11.38-14.31 5.96-18.77-6.34-5.22-12.99-0.6-12.2-12.39 29.95-33.6 28.31 6.75 50.01-24.86l-25.22-13.79c-19.87 11.01-44.89 44.18-60.42 15.91 2.79-28.02 32.79-26.04 14.28-34.87-29.25-13.94-22.49 11.59-35.62 10.59-7.74-10.29 4.39-21.41 12.66-28.51l-27.26 11c22.3-61.95-10.39-18.88-19.56-50.61 8.71-18.36 44.8-14.14 12.87-57.94-13.42-4.92-13.08 2.79-18.04 1.58-5.33-1.3-0.12-6.61-10.51-12.5-6.5 1.97-66.72 45.15-77.7 6.63l-11.38-11.42c-11.84 12.95-5.75 3.15-12.57 6.57-9.39 4.71-2.36 1.03-11.54 7.97-11.34 8.57-59.09 6.32-80.04 37.71l28.15-7.47 6.04 14.9-17.32 0.86-1.46 12.99-19.64 4.53c-32.89-0.94-22.8 11.44-30.57 8.99-3.85-1.22-3.68-14.97-21.21-0.29 0.01-0.52 1.24-12.12 1.2-12.31-1.58-7.46-13.39-15.68-19.65-19.43z"/>
   <path class="fil10" d="m1591.7 382.66c-8.23 6.56-26.15 25.81-13.57 25.75l2.87 15.39c-13.47-0.94-23.45 25.9-18.86 34.46 18.03-6.06 19.76-27.29 41.54-12.91 1.84 1.21 27.19 41.14 30.63 47.27l-22.5 4.71c2.57 10.53 5.84 4.77 8.99 6.12 14.66 6.3 3.08 5.03 15.98 17.09 16.27-9.68 14.99-3.81 26.16-9.73 11.47-6.07 3.51-7.47 20.23-13.87 22.77-8.71 34.06 2.26 50.87 15.33l-7.67 14.19 16.78-8.5c6.86 4.1 4.4 9.61 16.97 23.09 0.09 0.1 70.86 50.71 50.8 90.98l-13.11-9.91c3.91 24.2 27.96 61.84 9.3 95.59-83.83-9.24-40.61-60.82-101.44-97.64 1.42 5.59 19.67 48.57 22.54 55.53 9.79 23.71 25.48 24.39 37.3 44.37-2.49 22.84-16.41 32.2 11.87 56.91 13.91 12.16 10.31 3.13 20.71 20.02 13.52 21.95 11.7 6.91 23.05 22.53l-25.81 18.74c16.5 30.76 20.48-0.16 29.15 22.36 10.91 28.33-12.25-7.28 1.17 6.57 1.16 1.2 11.44-7.08 13.7 16.77 1.17 12.37-1.33 16.39-11.35 21.1l93.15 88.04c-6.04-11.99-24.62-30.22-25.3-41.08-1.79-28.82 7.33-23.85-15-48.43-10.31-11.35-27.53-24.28-30.03-37.88-2.59-14.06-7.76-47.01-1.15-55.36-23.7-0.09-36.9-16.56-50.81-33.19 0.89-26.83 7.54 9.53 8.36-23.49 0.47-19.11-0.32-6.65 4.8-22.23 7.84-23.85 3.86-43.82 20.35-49.9l5.68 43.83c9.19-12.91-3.03-38.61 8.55-59.2 10.64 17.22 0.79 26.3 5.19 53.57 48.89 10.06 21.77 17.64 37.2 47.67 14.51 28.24-3.68 19.78 28.04 71.6 44.84 73.23 37.96 127.67 58.6 142.54 12.08-21.13-18.09-28.34-1.34-53.74 18.8 3.92 13.25 16.49 24.28 36.01 12.48 22.1 15.22 8.75 22.32 37.45 7.7 31.11 11.18 2.93 15.87 38.85 2.35 17.97 7.17 27.45 23.59 35.65-6.83-22.32-12.1-15.78-15.77-33.76-4.11-20.2 6.41-8.13-4.12-27.82l11.93 6.27c-6.79-22.62-11.03-20-11.03-31.61 0-15.73-5.09-20.62-13.68-36.36-9.38-17.17-8.8-20.08-12.2-39.33-7.96-45.06 4.1-9.39 7.41-32.85-8.18-20.63-13.53-43.39-19.05-66.65-4.28-18.01 1.7-23.15-2.55-31.7-8.35-16.8-11.31-0.78-20.32-22.18-11.52 11.24-9.59 13.26-13.2-24.33-3.84-40.01-49.03-102.19-66.13-131.53 7.05 23.93 66.6 118.89 45.77 148.18-16.73-17.02-2.43-16.48-26.5-31.57-18.22-11.43-7.78-26.63-9.39-41.1-3.16-28.27-33.27-55.56-18.65-83.28l-59.1-65.17c-0.25-12.65 5.53-6.9-10.5-10.57-35.03-8.02 7.08-22.95-4.03-13.5-15.84-17.88 0-13.15-28.14-27.84-7.17-3.74-24.43-25.89-29.45-33.07l15.37-8.46c-16.82-15.76-15.98 5.94-24.67 18.06l-17.68-4.1 2.55-24.82-50.13-15.76 12.98 13.43c-15.77 11.87-10.88-3.54-5.03 14.69l-54.48 4.2 30.75 15.76-39.78-8.47c-18.48-5.19-26.82-13.77-27.54-34.03 15.22-12.17 0.52 7.19 15.43-14.35l45 5.55c-0.66 2.55-9.27-7.4 11.37-9.26 17.38-1.56 62.94 24.48 98.99 17.33l-80.7-21.7c-43.32-1.1-43.69 2.21-69.58-26.41l-32.84 15.09z"/>
   <path class="fil13" d="m1237.3 897.97l-0.1-1.93c25.01-3.38 25.77 21.89 5.19 30.26-22.46 9.13-113.13 16.12-140.62 17.93-14.04 16.76 10.43 10.21-18.76 24.7-8.84 4.39-22.55 9.55-32.07 9.59 17.04-10.38 11.24 3.82 11.7 5.05 10.14 26.64-10.86-10.22-7.34 49.56 52.47-1.49 29.59 10.64 74.54-14.55 19.82-11.11 58.22-16.4 81.03-18.77-28.76-32.46 43.92-24.8 54.04-22.49 7.37 1.68 18.66 11.59 26.69 18.48 17.91 15.33 8.89 2.83 34.88 6.4 5.85 8.27 21.59 20.98 22.74 26.08 4.62 20.46-20.48 14.85-19.14 8.77 9.46 20.09 14.91-8.13 18.09 21.13l-33.64-7.65c8.3 20.51 56.37 33.55 46.41 67.48-7.52 25.63 9.12-22.51-1.86 4.57-0.28 0.7-0.71 1.63-1.02 2.34-0.32 0.72-0.69 1.68-1.04 2.41-7.58 15.79 8.07 9.13-12.92 15.85l24.37 51.26c-20.71-1.28 0.56-2.33-22.46-11.42-4.83 37.96-7.7-8.68-13.38 24.6 14.32 11.21 47.85 14.57 70.75 6.74 28.18-9.64-12.6-0.38 14.7-12.27 10.62 0.85 37.18 5.12 44.9 8.73 30.99 14.49 24.43-0.04 45.22-2l-2.56-58.68 78.88-2.6 0.11-26.11c-3.01-24.48-7.6-25.93-23.16-40.67-16.21-15.35-17.65-24.39-33.22-12.88-27.55-29.25 9.76-2.49-21.98-22.94 5.62-12.19-4.73-11.65 14.7-11.77l-26.7-2.77c-8.92-22.4-1.32-14.56-22.34-29.9-12.12-8.85-20.43-14.15-27.54-23.15-10.98-13.88-5.06-19.76-20.81-25.84-17.46-6.74-0.89 4.96-13.59-4.55l-2.63-2.49c-5.72-5.88 3.28-0.99-2.21-3.62l-13.73 11.2c-30.88-33.76-61.36-17.82-87.13-34.99 2.34-5.34 8.38-26.45 17.75-8.2-23.91-6.19-53-23.04-84.74-10.88z"/>
   <path class="fil14" d="m1333.7 1660.8l5.88 18.4-22.82-1.62 2.93-24.48c-28.01-2.22-53 1.51-79.34 14.11l21.02-3.88c21.17 28.5-1.56 1.72 31.84 9.31 2.38 11.71-14.02 38.16-26.89 39.39l-2.8-21.69c-36.78 30.6-12.14 1.49-34.12 1.8l-2.94 25.41 31.47-9.75c3.1 19.85-2.41 11.82-14.67 19.21l30.6-3.13c18.18 26.34-0.07 22.11-0.72 45.24l14.34-8c6.19 15.29 3.55 26.67-8.55 40.74l0.85-22.31-25.03-1.43-6.03-11.08-8.59-14.85 2.02 27.5c-32.31 5.91 3.55 18.18-32.16 4.24l-16.95 16.78 9.21 13.16 28.16-4.22 2.13 13.67 89.29 18.76c28.81-0.76 76.97 8.15 107.23 12.83 51.5 7.98 51.91 26.87 77.45 35.4 35.67 11.93 45.36 1.77 94.26 25.65 17.16 8.38 48.39 30.26 66.23 22.27 10.59-15.03 26.28-82.83 4.21-96.69-39.5 5.33 0.3 47.48-6.06 68.99-23.14 5.68-24.67-34.16-35.5-42.39-15.22-11.57-34.58 10.25-56.53-16.43-35.76-43.49-11.34-9.92-54.32-29.84-40.98-19-25.72-4.12-51.18 15.5l-28.45-47.25-19.15 25.24c-8.58-3.07-6.13-7.95-15.21-13.31-9.99-5.9-8.28 0.54-19.24-2.48-29.95-8.25-4.41-3.43-24.97 5.63-17.89 7.88-39.3-16.34-44.17-31.07-11.22-33.94 18.3-24.14 26.02-30.73l-14.11-17.8 26.75-9.58c9.02 6.19-2.1 34.81 8.52 29.01 5.46-2.98 25.4-13.46 27.4-16.28 5.67-8 1.88-22 12.38-25.8 13.87 14.47-6.44 54.14 17.69 74.85 4.24-2.31 4.85-12.5 14.25-18.69 10.55-6.95 12.07 1.38 13.16-9.7 3.95-40.36 3.45-14.02-23.72-35.05 11.95-4.39 20.97 36.14-6.43 36.62-14.15-16.18-9.94-42.39 2.65-58.35l28.44 1.6 23.27-56.92c-27.85-28.95-48.16 7.37-60.08-21.34-13.03-31.41-52.8-39.12-15.56-59.2 25.32-9.29 40.34-12.33 68.94-7.51 23.58 3.98 42.64 19.06 59.78 21.02 54.99 14.41 52.81 84.16 55.37 87.04 14.57 16.43 27.55-14.49 71.66-20.26 23.83-3.12 66.06 9.06 77.89-7.64l-10.15 28.14 11.07-4.22 28.96-52.36-1.54-7.33c-17.27 8.29-12.23-1.58-28.77 7.33-9.48 5.1-10.49 9.85-21.78 14.19-16.47 6.32-37.68-0.88-46.51-17.04-11.1 5.23-7.01 13.69-25.05 6.87l3.5-21.78c-27.23 3.51-55.7 21.04-40.04-25.12-41.41-27.14 3.94-5.24-20.13-24.64-1.18-0.7-62.01-2.87-70.75-2.96-19.14-0.19-25.41 14.04-61.95 9.58-40.17-4.91-40.61 2.85-73.63 5.56-23.14 1.9-30.34-12.41-53.25 0.28-2.63-22.6 6.29-21-10.45-28.6-26.2 44.06 13.34 72.31 20.41 110.24 4.81 25.82 9.8 4.28 29.64 15.88-5.89 22.57-20.03 9.87-26.68 7.74l0.03 9.63z"/>
   <path class="fil14" d="m1014.7 1239.3c24-0.6 18.06 5.63 40.96-0.4 18.28-4.82 19.49 3.33 43.23 5.26l2.02-15.17c25.07 7.19 48.24 32.97 77.9 14.36-7.52-17.77-26.52-13.43-46.41-21.21-17.72-6.93-26.97-13.62-45.26-18.45-48.68-12.86 13.38-2.17-23.32-25.75-5.26-3.38-4.56-3.19-8.36-6.47-21.52-18.57-19.32-1.77-36.22-14l27.8-5.91c1.85-21.16 0.88-19.18-1.52-23.41-14.52-25.58-19.01-15.2-34.42-24.24l31.47-9.12-31.29-17.16c11.79-7.98 25.9 0 36.93 8.73 18.7-8.12 2.58-19.24 31.46-4.71 13.39 6.74 15.66-0.42 32.53-9.54 31.29 12.74 14.94 12.19 56.57 13.74 19.23 0.71 51.27 1.76 65.98 10.9 21.59 6.4 39.64 10.39 59.84 17.54 17.86 6.32 33.9 20.37 49.48 28.88 20.99-6.71 5.34-0.06 12.92-15.85 0.35-0.73 0.72-1.69 1.04-2.41 0.31-0.7 0.74-1.64 1.02-2.34 10.99-27.08-5.66 21.06 1.86-4.57 9.96-33.93-38.11-46.97-46.41-67.48l33.64 7.65c-3.18-29.26-8.64-1.04-18.09-21.13-1.33 6.07 23.77 11.68 19.14-8.77-1.15-5.1-16.89-17.81-22.74-26.08-25.99-3.57-16.98 8.93-34.88-6.4-8.04-6.88-19.33-16.79-26.69-18.48-10.11-2.31-82.79-9.97-54.04 22.49-22.81 2.37-61.21 7.66-81.03 18.77-44.95 25.19-22.07 13.06-74.54 14.55-3.52-59.78 17.48-22.92 7.34-49.56-0.47-1.23 5.33-15.43-11.7-5.05 9.52-0.05 23.24-5.2 32.07-9.59 29.18-14.49 4.72-7.95 18.76-24.7 27.5-1.81 118.16-8.8 140.62-17.93 20.58-8.37 19.82-33.63-5.19-30.26l-29.12 9.8c-7.5-9.71 1.09-6.17-20.46-5.04-22.2 1.16-26.24-0.78-50.34 4.39-19.89 4.27-30.05-5.46-38.28 2.99-17.95 18.44-17.58 11.85-41.07 9.03l-29.9 36.38-25.22-15.11-14.23 5.13c12.81 7.72 10.11 20.78-2.72 24.73-12.3 3.79-3.28-5.62-12.08 0.05-5.86 3.77-0.2 5.59-11.86 12.44l-42.26-17.79 12.23 21.53-28.76-12.23c7.79 27.68 4.59 33.11-20.83 45.34 15.96 11.06 28.51 10.18 30.57 27.87 2.73 23.44 14.32 4.05 19.03 27.3l-49.88 4.64 83.25 20.44c-13.88 19.89 14.1 9.89 33.34 13.41l27.95 29.83c-8.61 18.59-13.53 11.57-28.4 16.36l24.19 17.28-17.77 20.03 50.21 37.91-40.07 6.54z"/>
   <path class="fil15" d="m1014.7 1239.3l12.89 8.05 44.91 14.32c14.95 2.09 16.12-1.56 27.05 3.9 24.26 12.12-18.03 7.2 66.8 14.09 38.04 3.09 63.74 18.62 105.92 17.98 79.78-1.21 88.59 2.9 150.02-25.85 21.6-10.11 38.62-6.6 47.83-14.88 5.65 7.49 4.12 9.19 6.54 11.79 11.28 12.14-2.47-2.81 10.52 7.03 20.29 15.37-2.02 13.41 15.14 24.38 23.44-1.2 19.13-18.81 25.88-33.14 19.82-42.07 56.88-48.5 56.32-119.45l-78.88 2.6 2.56 58.68c-20.8 1.95-14.24 16.49-45.22 2-7.72-3.61-34.28-7.88-44.9-8.73-27.3 11.89 13.48 2.64-14.7 12.27-22.9 7.84-56.43 4.48-70.75-6.74 5.68-33.28 8.55 13.36 13.38-24.6-7.62-23.43-40.56-48.29-69.42-49.47-12.57 17.67-9.62 24.56-28.91 42-23.89-3.51-55.65-19.39-76.33-31.21-14.42-8.24-18.18-16.58-31.27-20.76-21.34-6.8-25.87-2.58-30.97-24.36 14.07-9.4 46.05-11.52 65.79-9.07 36.29 4.5 1.72 3.66 59.9 6.58-14.71-9.14-46.75-10.19-65.98-10.9-41.63-1.55-25.28-0.99-56.57-13.74-16.87 9.13-19.14 16.28-32.53 9.54-28.88-14.53-12.76-3.41-31.46 4.71-11.03-8.73-25.14-16.71-36.93-8.73l31.29 17.16-31.47 9.12c15.41 9.05 19.9-1.34 34.42 24.24 2.39 4.22 3.37 2.24 1.52 23.41l-27.8 5.91c16.89 12.23 14.7-4.57 36.22 14 3.8 3.28 3.1 3.09 8.36 6.47 36.7 23.59-25.37 12.9 23.32 25.75 18.29 4.83 27.54 11.52 45.26 18.45 19.89 7.78 38.89 3.45 46.41 21.21-29.66 18.61-52.83-7.17-77.9-14.36l-2.02 15.17c-23.74-1.93-24.94-10.08-43.23-5.26-22.89 6.03-16.95-0.2-40.96 0.4z"/>
   <path class="fil16" d="m709.28 685.08l-22.39 35.35 14.25-6.14 5.94 32.49c14.13-17.98 0.09-16.47 13.56-27.32 14.69-11.83 8.64-12.14 17.75-20.92l16.87 47.13-19.48-3.31c0.55-8.61 16.59-20.89-15.38-23.28l-2.03 49.39-10.86-5.85-0.07 17.37-16.35-6.48c9.54 31.02-15.76 30.24-36.17 35.26l-11.54 22.81c14.22 3.61 13.79-2.28 9.97 26.82-1.21 9.2-4.99 22.39-9.65 30.58l-13.76-42.13-7.96 57.26 12.8-8.32c2.54 11.12-2.84 26.25-5.48 38.52-7.37 34.28-2.76 4.98-20.3 26.58-6.38 65.69 7.76 27.83-25.22 68.58l6.24 11.49c-36.71 32.07 12.26 95.71-20.77 127.55l-3.44-23.9c-21.22 12.47-32.45 94.78-13.7 112.27 8.72-12.18-0.07-4.71 1.11-21.01 2.09-28.71-12.95-26.46 5.79-49.58l7.17 44.1 2.6-43.71c3.97 1.35 5.77 10.38 5.99 10.58 10.71 10.26-10.23-0.6 3.57-5.23l5.42 29.67 10.12-5.44 8.47 26.85c13.17-1.74 18.58-14.1 23.45-25.93 12.36-30 1.3-8.37 1.15-26.78 0-0.03 64.55-173.87 80.88-183.04-5.99-25.17 25.07-69.58 33.31-121.99 3.87-24.61-6.89-12.35-13.85-15.3 19.87-16.85 8.84-30.76 34.49-40.76 20.12-7.84 35.67-34.21 29.47-57.79-8.26-16.75-25.13 2.06-33.46-1.23l27.59-62.99-13.36-8.3c12.93-2.71 51.93-31 58.16-42.08 20.04-35.65 11.62-20.62 36.26-21.67l25.47-51.28c36.03-2.94 16.42 2.49 34.54-15.29 8.8-8.64 27.55-11.95 38.07-4.53l-23.59 19c28.61-2.87 30.56-25.63 48.74-45.41-47.92-32.85-76.57 24.12-94.26 34.68-19.04 11.37-19.04-15.66-43 1.59-11.47 8.26 3.81 4.46-10.54 13.82-11.56 7.54-16.92 2.06-15.64 21.43l25.62-2.46c-21.35 19.27-22.73-7.58-44.53 6.5-21.73 14.04-14.88 22.64-21.76 25.08-28.98 10.29-57.79 49.03-76.31 46.67z"/>
   <path class="fil17" d="m331.25 979.95c21.06 2.47 19.51-3.71 27.53 11.1 4.11 7.59 4.2 16.45 16.51 14.86-13.98 3.78-7.59-1.27-10.51 12.92l35.88-1.75c0.72 4.97-9.75 29.62-12.79 39.77-4.19 13.98-14.57 21.47-26.73 30.29l8.39 38.55c18.06 6.37 35.71-8.56 35.5 21.93-13.29 8.03-48.23 4.42-58.67 24.33-12.96 24.73-2.87 41.35-43.65 36.41l-14.58-31.48c-9.13 24.6 7.11 8.23-15.45 27.81-28.09 24.39-32.11 80.21-36.21 104.39 11.37-9.46 35.26 30.63 40.9 41.29l62.61 4.68c9.61 14.61 9.37 35.34 22.09 48.44 17.94 18.47 34.16 3.1 55.75 16.14l-30.16 60.62c11.17 6.44 36.76-7.36 31.3 19.81-2.7 13.47-7.57 8.44-9.8 20.25-1.47 7.78 2 13.39-0.17 26.45-1.43 1.92-31.41 35.15-32.28 35.85-11.59 9.37-14.98 11.29-17.75 13.26-3.15 2.25-5.69 4.18-21.94 9.9 12.79 8.15 18.02 6.47 24.34 10.8 3.1 2.12 6.36 4.5 11.1 12.45 23.83-26.22 0.71-6.67 35.31-25.21 18.97-10.16 20.83-14.59 25.98-35.95 8.07-33.42 16.09-57.63 22.33-95.46 3.96-24.02 8.4-79.55 17.99-97.99 12.25-23.58 13.39-65.45 11.5-94.58-21.05 6.31-2.22 10.25-11.57 26.46-17.59-11.9-11.19-21.15-31.54-19.99-13.51 27.77 9.98 13.09-7.81 32.89l27.5 15.31c-0.1 3.54-4 53.01-4.56 54.83-4.53 14.76-2.46 4.67-6.42 11.67-3.68 6.52-21.74 40.32-20.36 4.93l-6.7 7.46c-21.24-6.87-28.57-6.11-45.7-18.95-9.36-7.02-16.44-20.51-4.48-31.35 12.19-11.05 5.59-2.07 13.8-2.93 7.78-0.81 8.18-7.28 31.08-1.36-7.05-21.28-38.4-23.18-29.72-61.45 0.35-1.53 25.44-52.26 30.13-63.97-26.89 7.01 2.54-4.66-28.95 28.91-9.73 10.38-22.76 15.91-30.95 25.88-22.14 26.93-2.39 6.37-30.51 30.43l-11.19 8.95c-3.87 7.11 3.77-1.85 0.2 13.86-30.18-6.66-29.48-26.57-21.17-55.71 8.43-12.85 11.97 4.62 35.87-20.68l6.88-6.09c15.43-16.3-6.16 4.58 6.55-15.63 9.5-15.1 7.32-6.26 16.42-19.15 10.63-15.04 3.11-35.08 19.58-51.64 13.6-13.68 28.09-3.82 44.24-26.23 5.58 20.03 7.67 48.57 4.48 69.77 6.22-3.08 43.94-7.43 59.63-40.84 23.37-49.75-4.19-34.13 0.01-82.88l26.58 25.57c8.47-3.73 7.38-10.02 1.24-18.98-13.55-19.77-5.67 9.32-13.99-18.87-5.85-19.83-6.01-31.65-31.74-35.06l10.96-11.74c-12.1-1.96-6.18 4.98-23.26-37.35l-10.44-20.15c-8.56-18.76-9.63-5.18-38.69-8.24-22.62-2.38 4.27-5.01-19.76-12.15l-9.17 21.16-7.87-3.2 4.54-17.86-3.58-6.03c-25.88 37.79-30.7-5.08-43.89 30.52z"/>
   <path class="fil18" d="m420.26 1952.9c21.74 16.2 121.05 114.07 127.34 116.6-12.82 31.16 0.04 21.26 0.57 30.01-21.97 147.63 615.35 250.44 446.06 197.23 18.72-29.46 28.01-31.48-22.78-40.61l7.35-18.6-14.83 15.88 0.91-14.92c-10.92 15.39-12.31 45.2-39.66 31.77l21.35-21.69c-24.99 13.03 9.15-24.34-36.29 0.52l-27.91-20.96 6.34-10.72c-18.83-10.17-4.16-7.81-26.7-0.39-4.09-17.21 1.26-1.06-12.81-8.85 2.71-16.68 6.46-22.11 23.53-22.52-36.7-2.12-14.84 5.82-39.49 16.09l-13.33-0.03c-15.67-39.83-30.3-14.96-74.8-20.59 18.08-2.25 1-8.25 0-11.99 40.96-32.95 17.11-8.27 52.88-15.5-10.69-11.96-2.43-17.19 10.93-29.67l-28.79-3.38c-5.56 9.87 10.45 17.42-27.01 6.21l20.32-14.62-62.55 8.91 18.36-42.03c-16.1-2.21-29.34 3.76-40.08-6.17-15.55-14.36 6.23-13.3-31.97-7.18l-12.7-48.64c-19.57-1.48-52.89 11.77-63.13-20.65 0.73-11.71 5.74-3.47 7.81-8.65 1.76-4.41-4.44 0.4-5.84-8.88l52.97-9.78c-23.57-9.09-45.82 2.06-62.05 4.22l8.8 47.77-30.11 4.21 1.8-23.44c-29.6-0.97-15.62-16.01-27.73-34.15l-35.81 2.84 2.81-26.1 13.08 15.5 6.12-52.91c-13.22-16.49 0.27 6.21-22.5 2.34-20.97-3.57-1.58-9.91-20.57 9.82-4.76-17.97-7.77-20.24 2.3-34.97 15.09-22.05 2-12.15 3.5-26.43 2.53-24.06 1.86 16.47 6.1-11.79 0.97-6.44-1.65-11.66-1.71-21.29-0.17-29.01 11.54-9.42 11.21-33.83-0.22 9.01-7.83 12.79-13.43 21.26-15.24 23.05-1.83 1.92-3.25 15-2.44 22.47-15.5 0.47-5.21 48.08-2.61 0.24-103.27-172.66-115.89-130.52l-20.87 105.63 87.32 102.52z"/>
   <path class="fil19" d="m1098.2 1545.7l-19.44 2.04c-18.47 22.11-43.08 34.76-64.77 46.42-10.83 5.83-18.94 19.08-30.6 25.87-16.96 9.88-22.21 5.83-36.68 21.56-10.86 11.81-54.53 46.11-56.85 54.35-4.26 15.14 9.31 11.47-7.71 36.5-10.25 15.08-9.14 27.44-20 32.61l-9.09-25.04c10.11-9.23 25.74-7.31 26.21-31.82l-28 23.04-15.09-13.88c-47.01 30.15-7.03-33.51-10.22-50.43l-15.58-6.18c-10.79 12.87-24.07 29.24-35.54 4.58-27.22 23.05-10.96 6.49-13.04-5.52l-25.21 4.74c-14.86-19.67-12.92-38.74-32.69-7.23-5.4 8.61-17.43 13.9-28.87 12.14-18.61-2.86-1.71-2.37-11.47-20.59l-23.92 24.5 13.82-27.14c-18.5-9.42-28.1 28.87-29.61 42.73l20.51 17.67c-31.08 25.07-9.64-1.51-25.99 3.58-27.27 34.55-57.34 25.92-66.55 39.56 9.33 19.9 2.58 2.06 21.09 10.01-28.15 23.44-33.51 3.86-38.57 42.03 29.4-21.7 2.51 4.11 32.65-8.07-5.13 23.76-5.29-8.49-12.3 32.41l26.36-19.4-7.1 19.03 70.79 2.92-8.74 14.44 33.49-11.61c5.97 9.43 3.63 16.58-6.05 11.02 16.23-7.17 19.72-12.25 28.44 9.59l11.38 11.42-14.22-86.81c-23.78 0.5-18.47 20.86-33.94 28.93l1.5-33.04-20.32 20.81 1.21-14.83-23.86-0.22c2.06-32.93 17.95 6.07 46.07-30.12 1.31-1.69 42.41-33.95 44.1-34.89l-6.97 60.46c16.91 1.19 36.46-35.08 50.05-50.35l3.02 18.3c36.15-9.65 46.49-14.32 18.16 23.26 33.06-6.48 20.45-7.11 28.6 4.38l21.64-3.49c-7.85 18.23-31.14 44.46-51.43 39.38l0.92-16.75c-16.62 11.46-15.3 29.64-4.29 43.63l24.94-8.63 35.8 30.99c2.34 16.93-9.84 8.31 3.19 18.53 15.01 11.77 2 8.59 4.23 16.75 21.54-2.19 22.19 6.05 33.54 2.98 3.8-1.03 27.33-6.5 27.43-6.53 12.97-14.6 33.58-51.03 22.62-70.24l-25.48 7.9c-2.29-11.46 9.85-15.72 5.47-25.09-10.57-22.61-6.64 1.98-6-31.78 0.38-20.42-8.9-16.41 1.7-27.41 38.16-39.6 10.68-39.28 23.8-50.76 12.63-11.05 18.43-8.63 26.28-25.83 11.81-25.88 39.96-32.52 66.18-25.64l-9.24 17.35c12.68 13.71 18.37 10.99 31.7 3.1 32.89-20.91 25.18-18.65 43.76-14.96l-10.57 22.27c18.8-4.89 5.24-12.25 45.23-6.76 19.68 2.7 32.65 6.8 51.21-4.58l-57.05-18c21.59-0.14 18.61 5.64 27.51-10.09-13.72-16.89-25.3-1.82-40.2 4.82-16.2 7.22-16.71-1.35-39.85 0.25 17.58 2.44 10.73-1.81 10.98-16.86l-44.82 9.56c15.57 1.71 4.41-8.08 21.33-12.8 13.59-3.8 9.97 5.02 29.15-9.18 23.99-17.76 31.08-9.06 57.12-24.7 18.75-11.26 37.06-19.76 56.35-28.26 44.92-19.8 38.9-31.88 41.31-37.27-20.45-1.99 1.34 0.67-14.07 5.02-40.99 11.57-12.6 14.86-46.37 16.6-20.98 1.08-32.85 8.79-62.52 12.74z"/>
   <path class="fil20" d="m1545.6 2070.6l7.97 5.15c-6.06 14.11-9.17 3.97-3.85 18.43 7.41 20.17 3.95 12.97-1.18 31.63-4.48 16.29-1.49 19.55-7.88 31.44-0.51 0.94-2.18 3.44-2.73 4.35-0.1 0.16-3.69 6.08-4.08 6.69-8.35 13.16 2.66 5.49-9.85 11.77l-0.37-22.43c-14.65 6.47-24.89 4-34.56 8.56-11.89 5.6-7.87 12.83-16.39 14.65-0.95 0.2-21.35-5.2-25.73-7.68-11.62-6.57-7.72-9.31 4.12-17.78l-12.54-5.22-31.82 0.66c5.93 15.93 11.91 6.39 13.13 22.44 1.63 21.56-2.6-4.87-14.18 13.15 23.46 13.65 12.49-8.51 32.88 3.77 13.46 8.11 27.13 10.67 32.19 16.12l-9.83 0.92c14.54 19.68 15.25 3.06 23.41 26.4 0.19 0.53 0.49 1.58 0.68 2.1 10.26 27.69-10.38 15.39 1.41 43.68 23.16-8.9 12.75-9.34 15.64-17.86l17.58 5.71c-0.75-0.54 8.47-30.65 10.73-36.5 8.82-22.91 9.89-3.38 8.98-28.53l11.29 9.03c-1.21-24.53-2.9-5.39 7.61-26.2 7.6-15.06 0.37-2.83 16.47-8.81l37.03-57.63 1.27-1.99c-23.21-16.86 17.73-27.03 14.1-59.74-0.53-4.8-0.63-7.87-1.41-13.58-7.14-52.23-17.88-40.78-27.58-54.36-8.14-11.39-27.38-30.9-40.34-38.43-11.05-6.42-16.11-4.53-25.47-14.12-23.63 2.18-69.27 2.35-85.52-14.07-12.2 5.48-6.31 16.73-27.69 19.27-20.72 2.46-19.82-6.7-38.35-8.27-18.12-1.55 0.98 6.27-16.44 0.41-11.72-3.93 0.69-6.96-20.26-6.58-19.49 0.35-24.36 10.84-38.07-4.56-20.55-23.1-23.2-4.55-41.22-6.18-4.93-0.45-7.85-15.92-39.03-14.39-17.07 0.84-25.85 7.94-35.92 12.83-31.9 15.48-10.45 7.76-27.91 22.21-7.39-19.28 1.61-7.98 9.03-24.09l-17.89-5.42c11.16 6.12 4.45-12.88 1.99-19.63l-26.49 12.6c-4.08 1.95 4-3.98-11.67 1.22 9.09 53.53 82.62 53.53 85.04 54.41 21.03 7.71 2.19 0.74 11.63 15.83 6.27 10.01 31.23 13.99 44.24 15.77 1.86-16.99 1.79-15.34-16.27-14.83l28.05-3.64c-6.51 15.34 11.82 20.8 18.9 24.24 24.22 11.76 7.82 1.52 22.77 23.35 13.09-4.61 25.6 0.96 38.33 3.97 19.38 4.58 24.37-3.86 38.87-8.46 17.57-5.57 16.41 5.56 30.81 9.77 24.8 7.27 6.48-8.4 33.86 13.77 17.25-9.79 18.38-21.15 48.93-0.53 25.55 17.25 16.17 7.6 25.27 13.79 13.21 8.99-4.33 7.37 18.32 21.45z"/>
   <path class="fil21" d="m1150.9 852.82c-23.33 13.39 58.4-3.3 92.08 24.83-2.99 16.29 1.02 3.23-19.83 8.05l14.1 12.27c31.75-12.16 60.84 4.7 84.74 10.88-9.36-18.25-15.4 2.86-17.75 8.2 25.76 17.17 56.24 1.24 87.13 34.99l13.73-11.2c5.49 2.63-3.5-2.26 2.21 3.62l2.63 2.49c12.7 9.5-3.87-2.19 13.59 4.55 15.75 6.08 9.83 11.95 20.81 25.84 7.11 9 15.42 14.31 27.54 23.15 21.02 15.34 13.42 7.5 22.34 29.9l26.7 2.77c-19.43 0.12-9.08-0.41-14.7 11.77 31.74 20.44-5.57-6.31 21.98 22.94 15.57-11.51 17.01-2.48 33.22 12.88 15.56 14.73 20.15 16.19 23.16 40.67 13.5 2.73 8.27 0.02 13.56 8.66-0.31-21.04-0.77-50.27-3.04-70.15-3.16-27.71 20.3-32.94 22.24-53.97-22.71-20.43-18.36 4.73-34.18 3.36l10.03-17.17c-30.57-3.59-5.59-32.04 6.13-42.82l-24.13-22.73c-15.15 7.65-18.95-5.25-22.38-28.55l-14.55 3.61c-26.37-59.28-27.16-16.81-56.38-35.96-29.74-19.5-25.05 2.24-55.26-19.33-21.63-15.45-43.03-20-56.77-31.84-18.94-16.31-43.2-20.91-66.89-31.87-15.54 8.24-11.83 9.93-36.91 20.52-73.15 30.89-54.46-13.14-88.77-2.81-27.44 8.26-33.64 3.18-56.6 7.19l12.32 11.87-15.45 7.01 67.87 26.4-34.54-0.02z"/>
   <path class="fil22" d="m449.2 793.01l-15.83 22.33 21.03-0.3c-19.88 29.67-69.99 70.03-61.17 106.58l11.04-8.77c4.12 18.44 23.17 17.65 32.86 23.18 32.11 18.34 13.07-4.22 23.91-3.35l8.5 46.66c46.75 46.78 16.1 17.64 53.66 24.43 11.07 2 18.18 3.73 26.42 10.68 11.68-3.13 2.46-19.26 11.44-2.59 6.27 11.63 3.81 13.18 10.2 9.69l4.62 25.64 7.93-17.7c32.99-40.75 18.84-2.88 25.22-68.58 17.53-21.6 12.93 7.7 20.3-26.58 2.64-12.27 8.01-27.4 5.48-38.52l-12.8 8.32 7.96-57.26 13.76 42.13c4.67-8.19 8.44-21.39 9.65-30.58 3.83-29.1 4.25-23.21-9.97-26.82l11.54-22.81c20.41-5.02 45.71-4.24 36.17-35.26l16.35 6.48 0.07-17.37 10.86 5.85 2.03-49.39c31.97 2.39 15.93 14.67 15.38 23.28l19.48 3.31-16.87-47.13c-9.11 8.78-3.06 9.09-17.75 20.92-13.47 10.85 0.57 9.34-13.56 27.32l-5.94-32.49-14.25 6.14-8.15 4.64c-5.81-21.77-1.03-9.16 8.15-26.7-11.81-0.28-17.31 24.12-27.38 37.72-11.05 14.91-18.08 1.6-32.24 35.18-8.05 19.1-8 8.56-12.02 18.03-6.89 16.22 3.67 18.34-18.07 40.42-12.84 13.03-4.33 7.26-12.58 24.1 1.1-21.86-6.6-6.81-0.18-26.14 4.27-12.84 7.93-13.3 6.64-29.03l-16.61 24.19-14.53-0.22 6.25-17.84-15.56-1.41 17.26-29.05c-14.41 12.24-20.45 35.61-41.53 33.93l12.72-30.3c-52.57 11.22-64.71 87.46-101.95 110.4 3.88-27.3 72.56-110.05 82.52-133.26l-17.16 7.36c3.06-15.66 16.93-9.36 0.52-26.61-7.56 10.43-46.97 60.63-53.81 57.16z"/>
   <path class="fil23" d="m1471 337.4l0.86 11.58c16.93 2.01 15.35-3.47 25.56 14.64 17.17 0.39 22.78-1.22 35.8-6.37 26.99-10.65-4.19 1.77 25.29 10.76l12.54-15.11c5.34 5.92-5.14 21-5.27 21.26l-3.71 9.87 29.6-1.38 32.84-15.09c25.89 28.62 26.26 25.31 69.58 26.41l15.11-3.07c-14.37-23.84-7.73-0.95-22.92-10.03 2.84-13.75 51.45 5.21 54.18-20.01l-65.39-7.05c33.76-14.49 5.75-10.81 44.77-3.65l-5.73-8.61c22.08 1.04 25.42 12.93 39.24 29-18.7 5.49-26.58 1.03-32.41 16.77l30.07-4.09c49.25-26.89 68.1 48.52 111.62 52.77l1.93-15.17 63.04 53.2c17.29 13.76 9.65 7.64 1.88 22.5l17.03 14.54c-13.34 20.21-9.37-13.97-20.05 11.07 8.08 11.56 27.29 29.88 36.25 43.05 10.35 15.22 17.36 43.02 33.99 50.96 9.34-10.9-2.33-38.42-9.32-53.55-11.03-23.85-33.95-22.81-32.61-41.5 12.88-0.31 14.82 4.29 21.03 13.73 12.37 18.82 8.12 5.94 17.89 21.32 9.72 15.28 17.56 30.44 29.44 45.22l38.75-3.04 14.14-0.81c4.35-16.99-8.67-10.63-8.42-8.68 41.01-13.04-18.62-33.79-35.75-25.31-41.95-42.2-17.44-94.26-108.72-163.78-67.08-51.08-116.37-53.01-190.11-77.03-2.29-12.41 10.5-19.32-17.47-22.38-11.12-1.21-38.11-3.94-45.29 1.3 5.54 13.76 22.62 8.36 15.8 22.17-6.01 12.17-2.14-5.1-20.67 1.56-38.66 13.9-15 11.37-47.51 5.96-8.41 9.21-15.81 22.2-29.62 11.83-26.8-20.12 1.42-6.09-31.7-15.31-14.69-10.92 19.37-34.34-78.91-38.16 1.66 5.85 18.5 3.36 7.2 16.6 20.35-2.12 16.12 0.98 19.33 16.29l26 9.01-59.12 5.78z"/>
   <path class="fil24" d="m1038.5 1700.3l-36.36 2.84c-3.78 11.23 13.45 2.86-7.84 17.72-9.77 6.82-15.59 10.03-23.82 6.87l-20.09 35.33c10.1 4.63 9.14 4.91 20.15 7.35 26.37 5.83-1.92-10.32 18.27 1.56-15.78 27.72-7.46-9.91-31.8 17.56l-4.45-13.49c-7.95 11.66-20.92 26.24-11.7 43.08l26.46-20.54c5.29 15.38-0.99 0.15-0.59 9.96 0.46 11.04 1.06 2.85 1.52 10.42 0.9 14.85-2.58 9.01-8.07 23.9-3.11 8.4-4.52-7.35 4.28 2.47 4.63 5.16 4.39-7.82-2.8 14.49l23.17-4.31c18.1-21.62 21.67-14.57 27.04-17.17 0.53-0.25 3.28-5.68 8.29-8.53 12.47 17.25 10.8 9.84 33.16 13 30.35 4.29 43.84-19.04 105.01 9.87 39.15 18.5 57.95-4.85 83.32 2.07 10.19 2.78 25.46 9.7 36.52 13.12 33.44 10.34 19.63 11.77 32.74 18.98 50.15 1.15 63.65-3.09 114.22 17.05 36.23 14.43 67.85 23.49 107.18 32.48 42.5 2.9 71.82 62.37 102.29 50.6 20.14-31.16-63.59-80.64-85.04-83.94-26.52-4.09-28.96 11.31-58.47-7.04-6.52-4.06-10.4-11.13-23.63-17.07-9.88-4.43-25.79-5.89-38.46-10.73l18.1-5.07c-38.97 0.34-10.23 17.07-61.42-5.4-24.02-10.55-42.59-4.1-63.79-15.57l-89.29-18.76c-42.83-2.09-75.53-3.78-107.44-29.08-18.44-14.62-15.67-5.76-28.08-15.27 26.36-26.55 8.41-3.45 18.35-22.31l30.47 0.51c-14.41-1.72-4.93 14.16-14.56-8.04l37.22-30.82c-7.15 10.26-14.68-12.23-38.63 1.69l-2.98-21.13c-16.44-1.01-47.48 17.32-62.37 24.53-28.96 14.04-18.69 5.89-23.59 5.36-4.34-0.47-15.34 7.56-24.02 11.26-0.3-13.56 4.95-14.88 17.5-22.56 21.92-13.4-5.53 6.79 4.05-17.25z"/>
   <path class="fil24" d="m522.74 626.21c-3.57 32.23 3.66-4.29 6.68 16.71-25.25 11.91-9.02 16.47-29.25 39.47-8.14 9.25-10.45 17.33-18.62 25.4-10.25 10.12-16.57 9.43-25.5 19.53 20.05-9.63 0.66-16.11 31.03-18.65-3.67 10.39-9.92 16.9-20.61 24.04-38 25.39-0.34-17.45-19.6 4.12-17.28 16.53 1.09-4.38-0.12 11.23-0.03 0.42-0.1 1.5-0.16 1.93-3.61 26.12-4.94 2.07 2.38 24.5l0.22 18.51c6.84 3.47 46.26-46.73 53.81-57.16 16.41 17.25 2.54 10.95-0.52 26.61l17.16-7.36c-9.96 23.21-78.65 105.95-82.52 133.26 37.24-22.93 49.39-99.18 101.95-110.4l-12.72 30.3c21.09 1.68 27.13-21.69 41.53-33.93l-17.26 29.05 15.56 1.41-6.25 17.84 14.53 0.22 16.61-24.19c1.28 15.73-2.38 16.19-6.64 29.03-6.42 19.32 1.28 4.28 0.18 26.14 8.25-16.84-0.26-11.06 12.58-24.1 21.74-22.07 11.18-24.2 18.07-40.42 4.03-9.47 3.97 1.07 12.02-18.03 14.16-33.58 21.19-20.27 32.24-35.18 10.07-13.59 15.57-37.99 27.38-37.72-9.18 17.54-13.96 4.92-8.15 26.7l8.15-4.64 22.39-35.35 12.48-14.31c-4.94-15.54-9.49 6.97-5.5-7.77 2.78-10.25 12.77-3.07 0.84-13.75-25.34 9.32-18.03-12.22-36.35 1.95-13.99 10.83-5.05 24.06-33.82 24.31-5.38-20.92 5.14-16.8 10.57-31.04l-61.62-0.76c-3.8-14.46 12.28-7.17-3.5-18.87l41.17-29.97c-20.77 2.72-63.28 0.15-71.21-16.85 12.55-18.8 30.68-11.03 48.59-4.55 35.48 12.84 18.34 3.42 51.54 4.23l-15.95-12.75 36.03-2.34c4.27-0.13 35.32 15.96 38.69-12.65l-51.25-3.29-61.84-17.59c-1.67 1.68-47.47 39.05-54.41 44.78-14.83 12.26-48.61 34.39-51.98 50.67l34.51-7.19-13.55 8.86z"/>
   <path class="fil25" d="m1728.2 1134.3l-13.8 17.21c33.11 1.85 19.43 20.51 58.48 19.48 12.86-0.34 21.37-4.51 31.37-6.39l25.88-2.65c15.66 2.06 32.74 23.59 38.92 35.79 6.03 11.91-7.05 3.09 5.99 26.75 11.14 20.22 1.84-0.13 9.75 25.42-0.03-0.03-84.74-42.35-98.92-7.99l18.87 7.79c-19.06-3.16-19.53 7.07-19.66 7.17-12.52 9.47 0.79-12.26-17.58 8.71-5.35 6.1-6.29 15.57-13.23 21.47-13.86 11.77-4.52-15.59-19.1 8.67 6.2 16.68 53.01 27.94 77.94 51.81 16.52 15.81 57.1 54.77 57.16 75.88-17.52 1.5-16.54-8.36-63.57-12.68-18.6-1.71-41.47-1.98-53.88-22.03l-32.85-11.95c-1.08 45.11 28.64 58.59 40.7 94.25 6.44 19.04 15.69 30.26 19.37 48.85 5.63 28.45-1.15 28.99 10.93 53.77l67.39-10.67c2.69-32.94 12.47-4.02 10.67-39.61-10-3.94-17.29-0.54-30-9.84-6.53-4.78-13.22-11.83-24.23-18.53-24.64-14.99-26.05-18.98-46.81-39.46l29.72 6.69 7.4-20.57 32.06 11.17-2.7-17.75 29.85-0.46 16.1 34.14 9.4-22.06c-17.93-99.48 1.77-26.32-29.8-67.86-7.68-10.1-17.58-11.2-51.85-55.38-9.25-11.92-19.73-23.22-28.26-32.7 11.5-10.9 13.78-4.39 17.49-15.06 0.32-0.92 1.23-4.37 1.52-5.36l31.89 0.55-15.07-10.48c10.47-11.71 23.37-3.51 33.19 5.24 35.65 31.78 29.31 57.81 39.58 90.5 8.82-10.74-1.83-18.35 11.25-17.07 15.51 1.53-0.47 10.55 13.19 14.6l7.23-34.97 16.86 10.41-10.86-35.82c2.06-15.95 11.46-16.69 5.72-41.01-16.27-68.98-20.73-52.2-37.48-67.02-8.88-7.86-13.93-16.21-25.44-28.36-12.33-13.02-57.76-35.26-66.17-34.17-2.35 0.3-8.73 4.91-16.17 5.07-20.13 0.42 3.81-1.52-19.71-6.5-13.56-2.87-16.35 8.14-38.73 13.03z"/>
   <path class="fil26" d="m1720.6 1657.6l-26 26.1c7.12 17.13 4.44 36.11 15.35 58.43 13.25 27.09 13.5 23.69 19.01 55.04 4.89 27.8 12.15 26.62 14.25 55.74 2.56 35.43 19.19 12.97 5.11 46.48-22.48-26-49.81-163.06-71.15-203.2-28.41-1.72-39.75-5.49-37.36 25l-15.8-3.21 23.02 21.07-18.34 10.8c16.41 18.47 16.62 4.66 18.55 32.9 1.65 24 7.81 2.42 6.32 32.05l28.61 3.92-9.18-13.62c19.6 6.29 27.84 56.59 40.11 73.55l-9.77-7.24 7.44 30.7-13.87-12.79c-2.02 3.93-2.51 13.05-2.77 13.41-5.58 7.72 1.51-10.48-7.77 2.39l18.3 35.17 2.77-30.82 4.74 27.01 21.52-22.11c11.14 1.97 7.9 33.34 3.91 42.86-14.76 35.13-21.73 15.06-18.85 40.11 2.6 22.6-4.21 8.47-20.22 31.21-21.03 29.87 9.08 14.43-34.39 41.03l3.76 25.08-18.34 3.15 0.9 23.76 10.43 3.97c0.94-4.93 34.49-46.55 41.94-57.84 17.95-27.2 24.02-38.1 38.13-65.84 2.79-5.49 58.79-143.7 58.87-144.59l39.81-92.96c-30.64-10.61 0.43 0.27-18.42-13.6-3.5-2.58 0.29 14.88-10.46-15.37-15.66-44.09-7.5-22.34-6.49-32.48-48.91-0.63-16.59 8.56-36.43 14.38-21.16 6.2-5.28-1.75-13.11-7.41-13.72-9.91 5.5 6.72-16.74-5.03 3.69-27.11-3.72-4.21 1.92-28.35-13.37 8.99 8.95 13.28-16.06 9.03l7.82-32.11-11.07 4.22z"/>
   <path class="fil27" d="m1921.2 993c4.24 9.95 33.23 50.04 39.37 58.3 23.49 31.61 15.45 45.07 30.44 73.6l1.35-38.45 75.65 65.03-26.24-55.06c23.18-14.3 17.81-1.42 30.74-10.32l-12.09-10.42c-16.42-8.21-21.24-17.68-23.59-35.65-4.7-35.92-8.17-7.74-15.87-38.85-7.11-28.71-9.84-15.36-22.32-37.45-11.03-19.52-5.48-32.09-24.28-36.01-16.75 25.4 13.42 32.62 1.34 53.74-20.64-14.87-13.76-69.31-58.6-142.54-31.73-51.82-13.53-43.35-28.04-71.6-15.43-30.04 11.68-37.62-37.2-47.67-4.4-27.27 5.44-36.35-5.19-53.57-11.58 20.59 0.64 46.29-8.55 59.2l-5.68-43.83c-16.49 6.08-12.51 26.05-20.35 49.9-5.12 15.57-4.33 3.12-4.8 22.23-0.82 33.02-7.47-3.34-8.36 23.49 13.91 16.63 27.1 33.1 50.81 33.19-6.61 8.35-1.44 41.3 1.15 55.36 2.5 13.6 19.72 26.53 30.03 37.88 22.33 24.58 13.21 19.61 15 48.43 0.67 10.87 19.25 29.09 25.3 41.08z"/>
   <path class="fil28" d="m387.44 1835.7l20.44 53.86 4.77 9.64c14.99 2.64 12.2-38.7 14.49-54.17l2.99 17.78 11.45-24.26 2.82 28.69 14.4-24.76c-14.75-43.54 0.44-40.84 0.08-47.2-1.36-24.28 20.24-48.35 11.65-83.78l-17.48 7.56c5.12-38.55 18.02-5.64 24.56-36.16-10.3 26.43 27.09-10.9 36.26-6.22l-9.86 24.09 48.09-20.94c-4.08 4.94-46.42 24.68-34.77 45.98l13.12-7.17c-14.42 14.68-26.9 28.97-23.96 50.38 16.7 6.54 53.61-22.29 72.15-37.16l-18.14-9.33 21.13-6.22-16.43-9.31c16.06-5.49 23.9 12.23 36.11-12.2l-3.69 23.5 27.44-28.5-29.87-16.28c2.76-19.98 32.96-49.33 19.54-60.96l-17.84 8.66c-24.91-3.18-43.51 33.71-55.92 36 0.65-42.02 40.83-53.72 72.69-65.23 3.82-6.58 6.34-31.68 6.97-40.22 0.87-11.95 37.27-20.18 37.73-53.23l-29.69 15.47-29.26 17.85 13.54-32.29c-0.16-0.45-37.02-17.29-21.96 23.82 4.88 13.31-19.94 38.56-33.86 40.73l-2.42-27.7c-30 6.37 2.06 34-13.94 53.7l-14.98-16.36c-3.61 14.3 8.07 26.01-15.05 38.38l2.68-17.42-20.25 19.17c-1.88-1.17-3.92-23.28-16.55-13.17-3.11 2.49 5.31-13.98 5.98-20.41 1.87-18.04-39.88 6.92-45.32 23.13l30.73-4.78-24.38 29.91c3.3 24.46 24.17 25.21 1.24 42.91-19.41 14.98-1.69 16.48-19.81 37.64-15.3 17.86 0.41-5.83 8.76 28.97 5.84 24.35-0.59 17.08-7.22 37.21 3.27 2.85 21.29-8.82 18.56 16.52-2.42 22.5-10.47-1.09-15.55-2.28l-6.05 33.55-29.55-33.03-6.56 45.63z"/>
   <path class="fil29" d="m1751 383.24l8.51 4.81c-17.99-4.06-17.64-8.69-24.43 4.41 10.8 18.84 28.79 10.03 49.99 24.5 3.52 23.9-10.28 14.82 8.14 32.42l-11 7.49 33.61-5.67-21.64-13.87c23.72-16.3 80.59 28.34 101.68 29.08-12.84 7.82 1.15 17.81 4.74 21.55l-16.8-6c4.1 25.57 79.67 82.19 78.6 113.47l-20.47-22.82c-1.1 7.27 15.77 49.79 19.21 54.79 6.22 9.04 10.9 15.48 19.28 25.53 15.44 18.5-4.84 8.32 7.03 23.05 12.8 15.88 12.48-1.79 19.45 22.82 8.42 29.71 6.79 13.32 14.29 14.03 1.06 0.1 13.19 12.66 15.54 21.18 6.56 23.76-13.51-4.61-7.39 24.74l80.73-14.45c13.91-4.49 31.31-17.08-11.17-13.35-3.67-6.68-11.62-16.85-10.85-24.27l92.48-24.28c-16.5-10.65-43.27 2.26-62.34 9.03l17.18-12.66c-21.73-5.72-76.59 16.58-66.18-28.17 1.62-6.97-2.85-13.47-1.12-15.71 44.98 2.03 35.43-4.78 48.31-10.81 3.13-1.46 12.69-3.02 17.58-4.85-23.96-6.57-79.26 4.47-72.11-20.87l-38.75 3.04c-11.88-14.79-19.72-29.94-29.44-45.22-9.77-15.37-5.52-2.5-17.89-21.32-6.21-9.44-8.14-14.04-21.03-13.73-1.34 18.69 21.58 17.65 32.61 41.5 7 15.13 18.66 42.66 9.32 53.55-16.63-7.94-23.64-35.74-33.99-50.96-8.96-13.17-28.16-31.49-36.25-43.05 10.68-25.04 6.71 9.14 20.05-11.07l-17.03-14.54c7.77-14.86 15.42-8.74-1.88-22.5l-63.04-53.2-1.93 15.17c-43.52-4.25-62.36-79.66-111.62-52.77z"/>
   <path class="fil16" d="m412.65 1899.2l17.96 39.69 8.13-10.61 9.5-35.73c12.62-42.14 18.86-17.02 21.47-17.26-10.29-47.61 2.78-25.62 5.21-48.08 1.42-13.08-11.99 8.06 3.25-15 5.6-8.47 13.21-12.24 13.43-21.26 0.33 24.41-11.38 4.82-11.21 33.83 0.06 9.63 2.68 14.84 1.71 21.29-4.24 28.25-3.58-12.27-6.1 11.79-1.5 14.28 11.58 4.38-3.5 26.43-10.08 14.73-7.07 16.99-2.3 34.97 18.99-19.73-0.4-13.38 20.57-9.82 22.76 3.87 9.27-18.83 22.5-2.34 6.27 3.75 18.07 11.97 19.65 19.43 0.04 0.19-1.18 11.79-1.2 12.31 17.53-14.68 17.35-0.93 21.21 0.29 7.77 2.46-2.32-9.93 30.57-8.99l19.64-4.53 1.46-12.99 17.32-0.86-6.04-14.9-28.15 7.47c20.95-31.39 68.71-29.14 80.04-37.71 9.18-6.94 2.15-3.26 11.54-7.97 6.82-3.42 0.72 6.38 12.57-6.57-8.73-21.84-12.21-16.76-28.44-9.59 9.68 5.56 12.02-1.59 6.05-11.02l-33.49 11.61 8.74-14.44-70.79-2.92 7.1-19.03-26.36 19.4c7-40.9 7.16-8.65 12.3-32.41-30.14 12.17-3.25-13.63-32.65 8.07 5.05-38.18 10.41-18.6 38.57-42.03-18.51-7.95-11.76 9.89-21.09-10.01 9.21-13.64 39.28-5.01 66.55-39.56 16.35-5.08-5.09 21.5 25.99-3.58l-20.51-17.67 1.2 0.88-27.44 28.5 3.69-23.5c-12.21 24.44-20.06 6.71-36.11 12.2l16.43 9.31-21.13 6.22 18.14 9.33c-18.55 14.87-55.45 43.71-72.15 37.16-2.93-21.41 9.55-35.7 23.96-50.38l-13.12 7.17c-11.65-21.3 30.69-41.04 34.77-45.98l-48.09 20.94 9.86-24.09c-9.17-4.68-46.56 32.65-36.26 6.22-6.54 30.52-19.44-2.39-24.56 36.16l17.48-7.56c8.58 35.43-13.02 59.5-11.65 83.78 0.36 6.36-14.83 3.66-0.08 47.2l-14.4 24.76-2.82-28.69-11.45 24.26-2.99-17.78c-2.29 15.47 0.5 56.8-14.49 54.17z"/>
   <path class="fil30" d="m1634.1 555.21c10.86-0.51 33.32 17.5 38.66 26.69 18.17 31.26 25.49 9.61 32.96 38.16 60.83 36.82 17.62 88.39 101.44 97.64 18.66-33.74-5.39-71.39-9.3-95.59l13.11 9.91c20.05-40.27-50.71-90.88-50.8-90.98-12.57-13.48-10.12-18.99-16.97-23.09l-16.78 8.5 7.67-14.19c-16.81-13.08-28.1-24.05-50.87-15.33-16.72 6.4-8.76 7.8-20.23 13.87-11.18 5.92-9.89 0.04-26.16 9.73-12.9-12.06-1.32-10.79-15.98-17.09-3.15-1.35-6.42 4.41-8.99-6.12l22.5-4.71c-3.44-6.14-28.79-46.06-30.63-47.27-21.78-14.38-23.51 6.85-41.54 12.91-4.59-8.56 5.38-35.41 18.86-34.46l-29.44-9.84c-31.76 1.33-1.64-17.45-37.13-7.91-20.05 5.39-8.42 10.78-0.78 24.77l-12.28-0.05 18.31 22.04c3.77-4.7-15.94-0.71-8.04 26.22 4.73 16.13 12.91 11.24 31 17.88 29.41 10.79 45.48 29.53 74.62 18.89 2.9 19.4-21.78-4.16-1.08 16.05 13.48 13.16 12.49 3.5 17.9 23.38z"/>
   <path class="fil31" d="m1288.9 723.26l66.02-8.57-21.39-16.91c26.14-51.02 121.42-0.83 138.36-11.34-8.77-17.46-51.46-15.46-68.67-18.34l-4.67-21.61c22.8-5.29 62.31-21.45 79.65-20.55 27.04 1.4 38.33 21.75 59.98 0.53l-14.63-17.69c19.74-27.92 63.15 1.92 85.57 12.8 21.53 10.45 75.55 28.27 66.53 52.67-1.53 0.28-47.53-7.92-49.64-9.2-16.84-10.2-13.89-31.76-43.13-27.7l10.93 19.37c22.33 11.09 137.52 69.34 123.69 99.79-52.27 16.94-87.39-57.48-120.74-32.77l123.37 74.89-11.27 7.58 6.72 8.42 39.28-0.06-19.44-14.49 27.27-19.41c-18.33-43.97-49.06-16.14-36.02-73.35 1.45-6.38-29.95-70.15-36.73-78.27-14.72-17.61-50.85-38.11-71.23-48.95l-37.41-17.14c-37.17-14.97-8.26-11.86-39.13-7.85-23.52-32.83-27.63-14.62-58.59-17.35-10.26 20.41-22.02 31.18-37.29 47.68-7.06 7.64-13.51 15.68-21.06 22.28-22.36 19.56-6.25 4.91-11.11 20.25-14.62 3.37-26.51 11.44-39.75 18.54-28.31 15.17-8.63 6.62-11.71 21.7-31.57 6.44-70.7 8.87-96.65 32.1l22.9 22.95z"/>
   <path class="fil32" d="m1728.2 1134.3c22.37-4.89 25.17-15.9 38.73-13.03 23.52 4.98-0.42 6.91 19.71 6.5 7.44-0.15 13.82-4.76 16.17-5.07 8.41-1.09 53.84 21.16 66.17 34.17 11.52 12.16 16.57 20.5 25.44 28.36 16.75 14.82 21.21-1.95 37.48 67.02 5.74 24.32-3.66 25.06-5.72 41.01l10.86 35.82-16.86-10.41-7.23 34.97c-13.66-4.04 2.32-13.07-13.19-14.6-13.08-1.28-2.43 6.33-11.25 17.07-10.28-32.69-3.94-58.72-39.58-90.5-9.82-8.75-22.72-16.95-33.19-5.24l15.07 10.48-31.89-0.55c-0.29 0.99-1.2 4.43-1.52 5.36-3.71 10.67-5.99 4.16-17.49 15.06 8.53 9.48 19.01 20.78 28.26 32.7 34.27 44.18 44.17 45.28 51.85 55.38 31.57 41.54 11.87-31.62 29.8 67.86l28.77-67.62c7.61-28.86 6.14-6.1 30.59-55.83 11.67-23.75 6.96-11.03 5.46-30.09-2.06-26.2 4.83 21.36 14.79-16.53 5.91-22.46 34.39-72.14 16.26-86.03-32-24.53 27.15-13.21-9.66-31.49 5.85-2.49-19.41-15.75-20.16-23.17-1.24-12.26-17.67-2.36-24.09-11.4-15.04-5.79-26.76-15.49-31.23-17.84l-62.15-10.05c1.32-20.15 5.02 2.23 7.47-19.01 2.87-24.83-0.3 3.88-8.9-18.75-28.54 13.55 17.11 12.5-41.9 26.12-1.03 0.24-10.16 2.54-10.78 2.83-10.17 4.78-12.01 14.89-29.41 5.89-14.33 27.57 13.1-0.88-6.54 17.49-14.21 13.29-14.36 5.63-20.15 23.12z"/>
   <path class="fil33" d="m1438.5 2150.1l12.54 5.22c-11.84 8.47-15.74 11.22-4.12 17.78 4.38 2.48 24.78 7.88 25.73 7.68 8.52-1.82 4.5-9.05 16.39-14.65 9.67-4.56 19.91-2.08 34.56-8.56l0.37 22.43c12.51-6.28 1.51 1.39 9.85-11.77 0.39-0.61 3.98-6.53 4.08-6.69 0.55-0.91 2.23-3.4 2.73-4.35 6.38-11.89 3.39-15.14 7.88-31.44 5.14-18.67 8.6-11.46 1.18-31.63-5.31-14.46-2.21-4.31 3.85-18.43l-7.97-5.15c-18.15 11.62-6.61 10.45-10.81 30.99-18.39-17.92 8.82-10.82-17.9-25.25-23.81-12.87-11.66-5.73-8.49-20.1 2.6-11.78-39.99-15.65-53.64-9.2l-9.23-15.21-25.47 17.1c-10.08-11.94 1.53-1.62-19.7-2.19-21.65-0.58-9.06-7.82-45.59-5.06-14.44 1.09-37.85-12.18-44.26 14.82 3.81-16.69-39.29 3.35-44.47 10.31 19.36 27.9 21.47 8.77 41.52 3.52 14.35 31.77-37.56-7.8-16.29 48.48 21.18 6.04 10.07-8.04 48.64 8.45 16.56 7.08 22.51-4.52 35.94 23.16 17.96-2.14 48.98-16.82 62.66-0.27z"/>
   <path class="fil34" d="m1038.5 1700.3c-9.58 24.04 17.87 3.86-4.05 17.25-12.55 7.67-17.8 8.99-17.5 22.56 8.67-3.7 19.68-11.74 24.02-11.26 4.9 0.54-5.37 8.68 23.59-5.36 14.89-7.22 45.93-25.54 62.37-24.53l2.98 21.13c23.95-13.92 31.48 8.57 38.63-1.69l-37.22 30.82c9.63 22.2 0.14 6.33 14.56 8.04l-30.47-0.51c-9.94 18.86 8.01-4.24-18.35 22.31 12.41 9.5 9.64 0.65 28.08 15.27 31.91 25.3 64.61 26.99 107.44 29.08l-2.13-13.67-28.16 4.22-9.21-13.16 16.95-16.78c35.71 13.94-0.15 1.67 32.16-4.24l-2.02-27.5 8.59 14.85 6.03 11.08 25.03 1.43-0.85 22.31c12.1-14.07 14.74-25.45 8.55-40.74l-14.34 8c0.64-23.13 18.9-18.9 0.72-45.24l-30.6 3.13c12.26-7.4 17.77 0.63 14.67-19.21l-31.47 9.75 2.94-25.41c21.98-0.31-2.67 28.8 34.12-1.8l2.8 21.69c12.87-1.23 29.27-27.68 26.89-39.39-33.41-7.6-10.67 19.18-31.84-9.31l-21.02 3.88c26.33-12.6 51.33-16.33 79.34-14.11l-2.93 24.48 22.82 1.62-5.88-18.4c-16.16-9.68-7.48-23.08-45.64-21.72-43.17 1.54-16.95 0.56-35.85-9.65l-36.14 16.51 1.04 15.64c-16.97-16.9-2.5-13.61-29.93-15.34-19.56-1.23-21.9-7.31-35.46-6.19 11.2 20.4 35.22 8.17 50.59 17.54l-1.52 14.69-32.94 2.03c-17.2 11.56 16.65-2.86-6.01 8.53-14.34 7.21-57.84 10.86-68.53 1.07l36.36-15.95c-13.28-7.78-35.96-3.28-54.04 5.62l8.6 8.52c-12.89 1.16-7.9 2.76-25.64 6.1-15.57 2.93-14.45-2.2-20.09 12.01z"/>
   <path class="fil35" d="m1719.4 1313.7l2.43-6.79c14.68 10.7 15.4 0.08 51.3 19.79 18.34 10.08 8.64 0.79 19.8 16.67 13.38 19.02 3.68-9.9 12.1 12.84-16.96 11.67-6.08-4.11-20.28 15.11-5.88 7.96-9.43 15.43-15.03 21.57l-16.88-4.17c12.41 20.05 35.29 20.32 53.88 22.03 47.03 4.32 46.05 14.18 63.57 12.68-0.06-21.1-40.64-60.06-57.16-75.88-24.94-23.86-71.74-35.13-77.94-51.81 14.58-24.26 5.24 3.1 19.1-8.67 6.94-5.9 7.88-15.37 13.23-21.47 18.36-20.97 5.06 0.75 17.58-8.71 0.13-0.1 0.6-10.34 19.66-7.17l-18.87-7.79c14.18-34.36 98.89 7.96 98.92 7.99-7.91-25.55 1.39-5.2-9.75-25.42-13.04-23.66 0.04-14.83-5.99-26.75-6.17-12.19-23.26-33.72-38.92-35.79l-25.88 2.65c-10 1.89-18.52 6.06-31.37 6.39-39.05 1.03-25.37-17.64-58.48-19.48-32.92 34.23-11.16 121.61 4.98 162.15z"/>
   <path class="fil36" d="m318.41 1806.7c13.84 43.27 11.83 119.1 53.76 71.9-1.23-17.52-9.77-22.01-8.37-30.75 5.33-33.3 22.49 22.28-0.98-98.75l9.09 0.06c-1.97-23.97-9.31-45.66-15.45-67.46-12.98-46.1-8.84-27.16 2.14-64.51l-20.9-1.33c4.75 16.94-6.96 2.83-6.03 17.57 4.89 77.51-43.84 165.32-13.25 173.27z"/>
   <path class="fil37" d="m1063.8 2211.7l-1.88 9.81c32.56-1.49 17.22-13.28 32.51 8.21l9.77-14.08c3.27 19.71-4.15 11.36 4.92 32.11 2.56 5.86 9.15 17.42 10.73 28.92 1.88 13.63-14.56 75.58-25.22 80.25l3-22.93-18.35 30.67 15 18.56 19.9-14.64-15.07-6.44 22.52-10.25c-19.03-9.19-2.91-36.42 4.22-47.5 14.54-22.61 3.44-31.2 18.72-44.7-0.1 27.21 16.59-2.98 10.43 31.67-12.35 7.49-0.73-13.91-12.77 9.52-4.71 9.17-10.52 19.14-10.39 27.25 0.2 11.95 3.74 42.31 17.05 51.19l31.65-38c-10.93 9.61-13.01 13.56-4.8 23.99 7.96-11.96 1.34-11.24 7.4-17.05 14.62-14.02-3.13 11.9 9.17-6.12 8.97-13.14 7.62-3.55 4.95-23.35l12.35 3.17c-2.14-19.62-17.45-26.44-7.2-52.28 6.72-16.95 19.91-9.67 15.36-42.61-27.22-14.99-4.75 20.45-23.27-5.5l-12.4 11.79c-0.13-9.99 4.89-12.22 5.92-28.08 1.43-21.94-2.66-15.66 18.85-20.07l-23.21 5.24 5.73-29.58-56.1 4.21c9.29 15.79 20.5 28.16-7.06 35.41-12.2-15.2 2.82-11.49 1.18-19.34-20.61 4.39-4.26 33.6-18.44 55.63l-0.76-31.83-14.98 2.83c6.91-16.28 6.4-9.81 8.36-24.36 2.47-18.25 8.53-3.62 12.85-18.63l-30.95 14.9 11.66-30.93-13.46 8.96 1.48-24.22c-14.26 6.66-21.65 15.87-17.65 30.09 6.39 22.73 0.26 23.99-1.74 48.12z"/>
   <path class="fil38" d="m708.47 1125.5l12.06 16.52-23.02 25.93 9.91 10.71c-46.53 10.01-28.62 10.77-37.03 40.86-2.96 10.59-13.68-1.34-12.64 13.31 1.22 17.23 14.17 4.54 24.52 8.52-5.73 17.96-17.52 2.43-28.4 6.92l22.18 25.98c-2.82 4.06-37.52 21.36-5.69 36.19l30.5-20.69-12.56-6.06c9.37-17.33 12.33-41.34 17.79-45.07 26.17-17.89 50.88-60.23 69.31-53.55l-5.32 23.78 31.47-14.87-17.2 26.31c12.61 7.21 19.55-8.23 32.18-10.22 8.84-1.39 6.49 6.7 20.05 3.82 31.71-6.73 23.21-33.6-2.97-12.81l-6.41-22.93 23.18 1.48c0.21-21.9-13.74-26.77-31.39-22.18l7.44 11.25-35.89 12.31c-17.66-27.3 19.29-20.93 23.07-47.74 3.9-27.67 24.64-5.93 43.23-19.02 4.01-19.41-44.16-22.41-57.63-21.19-21.8 1.99-23.35 0.61-44.95 6.86-20.67 5.98-5.73-5.48-21.83-8.36-3.82 26.38 16.15 26.41-23.95 33.93z"/>
   <path class="fil39" d="m727.86 649c28.58 5.6 24.51-5.9 28.18-22.04 24.23-4.68 27.11-9.94 39.27-27.72 23.39-34.18-0.21-9.99 31.87-33.19l-16.51-8.06c18.26-3.78 27.6-9.02 42.38-15.95 6.37-2.98 95.98-23.55 105.08-44.91 10.68-25.06 5.61-8.67 26.63-25.45l92.09-68.69c-72.15 44.17-74.61 29.33-96.59 40.12-16.44 8.07-10.44 12.7-37.86 15.16l2.79 14.99c-38.34-11.87-24.22 47.52-49.51 19.46 10.62-5.7 18.93-4.1 31.42-18.06 14.5-16.2-4.34-9.7 16.35-22.67 7.67-4.81 54.56-24.19 63.1-26.54-53.84-7.86-52.23-9.06-94.86 16.24-32.96 19.56-13.65-2.82-33.17 26.85-10.53 16-21.7 6.31-32.11 28.21l35.46-10.5c-14.83 11.52-25.39 16.34-40.42 15.35-18.05-1.18-14.64 19.09-41.09 18.77-26.36-0.32-23.55-17.61-48.71-8.45-13.25 4.82-34.91 16.58-39.76 27.6 46.73 4.53 30.19-10.51 68.29-18.75 24.33-5.27 19.76 3.23 33.66-4.17 12.51-6.65 10.79-8.86 26.27-4.83 1.78 9.29 4.59 7.21-12.29 12.76l16.48 2.21-87.38 40.94c-12.03 6.1 12.52 8.77-19.64 16.25 20.59-5.51 14.66-3.8 18.87 13.09l-37.82 10.81c0.04 9.55 12.84-4.33 0.52 9.64-10.4 11.79-9.81 4.43-19.2 16.91l38.21-7.49-15.6 10.58 5.57 11.48z"/>
   <path class="fil40" d="m1346 1183c23.02 9.08 1.75 10.14 22.46 11.42l-24.37-51.26c-15.58-8.51-31.62-22.56-49.48-28.88-20.2-7.15-38.26-11.15-59.84-17.54-58.17-2.92-23.61-2.09-59.9-6.58-19.74-2.45-51.72-0.33-65.79 9.07 5.1 21.78 9.63 17.55 30.97 24.36 13.09 4.17 16.85 12.52 31.27 20.76 20.69 11.82 52.45 27.7 76.33 31.21 19.29-17.44 16.34-24.33 28.91-42 28.87 1.18 61.8 26.03 69.42 49.47z"/>
   <path class="fil41" d="m1304.4 273.54l43.13 14.91c-18.48 17.77-52.79 8.35-73.01 7.46l-1.7 9.72c16.38 5.89-1.89-7.42 13.88 3.35 17.18 11.74 0.74 4.04 24.96 2.64l1.79 22.98c-15.58 2.51-15.53-6.73-21.32 22.62-4.78 24.2-15.84 15.76-18.92 36.88 14.88-0.86 15.13-13.66 23.51-27.18 7.38 3.9 2.24 20.51 18 4.72-6.67-19.46-14.67 4.09-12.34-19.71 20.84-5.85 5.3 4.76 17.02 7.69 11.27-14.95-19.05-0.84 0.23-33.9 13.54 3.97 20.44 42.99 36.76 10.34-9.61-11.34-9.71-2.21-9.68-2.12l-4.06-20.51c13.46 11.76 23.09 3.49 37.3 8 6.68 22.69-0.26 5.76-1.42 24.4 20.93 9.98 13.6-0.4 40.83 8.06 21.25 6.6 25.07-5.24 49.22-7.2l4.54-10.32c114.75 12.46 53.28-40.83 14.34-30.97-24.01-4.52-51.55-10.98-65.11 17.77-9.53-16.04 9.61-17.26-16.96-23.98 10.31-4.01 10.58-6.7 11.04-12.77l-41.05-6.84 27.28-2.98c-15.17-11.49-62-3.32-80.76-5.69 0.06-90.67-34.65-32.26-17.49 2.61z"/>
   <path class="fil17" d="m419.22 1233.4l11.45-17.33c3.19-21.2 1.1-49.74-4.48-69.77-16.15 22.41-30.64 12.56-44.24 26.23-16.47 16.56-8.95 36.6-19.58 51.64-9.11 12.89-6.93 4.05-16.42 19.15-12.71 20.2 8.87-0.67-6.55 15.63l-6.88 6.09c-23.9 25.3-27.44 7.83-35.87 20.68-8.31 29.14-9.01 49.05 21.17 55.71 3.57-15.71-4.07-6.75-0.2-13.86l11.19-8.95c28.12-24.06 8.36-3.5 30.51-30.43 8.19-9.96 21.22-15.5 30.95-25.88 31.49-33.57 2.07-21.9 28.95-28.91z"/>
   <path class="fil42" d="m364.79 1018.8c2.92-14.19-3.47-9.14 10.51-12.92-12.31 1.59-12.4-7.27-16.51-14.86-8.02-14.81-6.47-8.63-27.53-11.1l-20 1.18c0.23 13.9-9.68 28.9-14.54 42.88-6.55 18.83-6.4 36.66-12.23 52.18-3.09 8.23-37.03 67.47-20.69 101.6 12.33-3.91 6.5-4.13 13.35-17.77l49.18-81.6c3.27-7.05 14.98-52.31 38.48-59.59z"/>
   <path class="fil12" d="m1397.1 1556.8c2.97 23.23 24.04 46.4 49.28 49.09 18.28 1.94 50.85-18.61 74.88-20.78l4.56-14.79c-17.14-1.96-36.2-17.05-59.78-21.02-28.6-4.82-43.62-1.79-68.94 7.51z"/>
   <path class="fil43" d="m1719.4 1313.7l0.59 63.09 32.85 11.95 16.88 4.17c5.6-6.15 9.15-13.61 15.03-21.57 14.2-19.22 3.32-3.44 20.28-15.11-8.42-22.75 1.28 6.18-12.1-12.84-11.16-15.88-1.46-6.59-19.8-16.67-35.89-19.72-36.62-9.1-51.3-19.79l-2.43 6.79z"/>
   <path class="fil44" d="m430.8 1405.9c-0.81-18.15-4.36-32.23-12-47.13-22.9-5.92-23.31 0.54-31.08 1.36-8.21 0.86-1.62-8.12-13.8 2.93-11.96 10.85-4.88 24.33 4.48 31.35 17.12 12.84 24.46 12.09 45.7 18.95l6.7-7.46z"/>
   <path class="fil17" d="m1226.3 324.07l-2.12-1.15c-0.2 0.22-4.08 6.61-4.25 6.94-0.36 0.7-0.83 1.78-1.22 2.56l-9.63 22.55c-2.25 2.91-5.79 4.05-6.54 4.38-8.13 3.55-7.52 2.15-11.91 2.52 14.18 0.88 30.71 10.22 43.66 13.16 1.15 7.08-4.97 8.96-2.26 16.92 14.55-4.4 0.43 0.76 8.21-5.12 12.41-9.38 10.79-8.85 12.7-17.13-21.03-14.29-9.39 10.35-17.05-11.65 8.54-14.3 16.68-25.12 27.9-21.68l13.03 7.95c3.81-8.09 1.46-3.54 1.39-9.53l-3.01-19.1c-13.18 6.83-34.88 8.9-48.88 8.4z"/>
   <path class="fil45" d="m903.57 385.98l31.28-3.57 2.58-14c-17.37 0.79 7.29 2.87-13.72 6.9-1.67-4.86 3.4-3.9-2.48-14.31-1.01-1.78-2.36 0.08-4.15-6.83 18.57-1.31 5.75 3.17 18.45-2.51 1.86-14.32-1.61-11.29 0.78-22.98-10.65 5.49-58.77-14.18-48.97 28.13 0.78 3.39 2.59 6.8 4.57 8.86l9.59 6.22c-10.65 8.43-11.49 3.17-13.91 13.88 2.71-5.16-9.09-1.75 4.01-1.64 1.11 0.01 9.79 1.58 11.96 1.85z"/>
   <path class="fil46" d="m1246.1 0c688.19 0 1246.1 557.89 1246.1 1246.1s-557.89 1246.1-1246.1 1246.1-1246.1-557.89-1246.1-1246.1 557.89-1246.1 1246.1-1246.1zm0 173.46c592.39 0 1072.6 480.23 1072.6 1072.6s-480.23 1072.6-1072.6 1072.6-1072.6-480.23-1072.6-1072.6 480.23-1072.6 1072.6-1072.6z"/>
</svg>
