<?xml version="1.0" encoding="UTF-8"?>
<!DOCTYPE svg  PUBLIC '-//W3C//DTD SVG 1.1//EN'  'http://www.w3.org/Graphics/SVG/1.1/DTD/svg11.dtd'>
<svg width="100mm" height="100mm" clip-rule="evenodd" fill-rule="evenodd" image-rendering="optimizeQuality" shape-rendering="geometricPrecision" text-rendering="geometricPrecision" version="1.1" viewBox="0 0 10096.09 10096.09" xml:space="preserve" xmlns="http://www.w3.org/2000/svg">
 <defs>
  <style type="text/css">
   <![CDATA[
    .fil1 {fill:#FEFEFE}
    .fil2 {fill:#9D9E9E}
    .fil3 {fill:#5B5B5B}
    .fil0 {fill:#2B2A29}
    .fil4 {fill:#FEFEFE;fill-rule:nonzero}
   ]]>
  </style>
 </defs>
  <circle class="fil0" cx="5048" cy="5048" r="5048"/>
  <circle class="fil1" cx="5048" cy="5048" r="4345.3"/>
  <path class="fil2" d="m2349.8 5118l-1667.2-12.24c9.94-1408.2 659.9-2659.8 1667.2-3469.2v3481.4z"/>
  <path class="fil2" d="m7747 5102.2l1667.2-12.24c-9.94-1408.2-659.9-2659.8-1667.2-3469.2v3481.4z"/>
  <path class="fil3" d="m5048.1 5056.9l4346.7 31.28c-17.18 2388.4-1958.2 4315.6-4346.7 4315.6-2400.7 0-4346.8-1946.2-4346.8-4346.8h4346.8z"/>
  <path class="fil4" d="m3244.6 6103.8l-580.75-242.42v-88.35l580.75-242.42v105.77l-448.22 180.83 448.22 180.84v105.77zm703.56 66.8h-178.86v-84.22c-14.73 20.66-27.3 35.74-37.89 45.44-10.41 9.7-24.78 19.75-42.56 30.17-27.64 14.36-61.24 21.54-100.55 21.54-67.34 0-122.47-28.37-165.21-85.29-42.92-56.75-64.29-129.29-64.29-217.64 0-44.54 5.57-85.13 16.53-121.58 11.13-36.45 26.94-68.23 47.76-95.53 20.65-27.12 45.26-47.94 73.63-62.49 28.38-14.55 59.26-21.91 92.66-21.91 25.85 0 49.39 3.77 70.39 11.31 21.19 7.54 38.97 16.52 53.51 26.94 14.56 10.24 26.59 21.01 36.1 32.32 9.33 11.31 16.16 20.65 19.93 28.38v-218.54h-65.73v-91.59h178.86v711.11h65.73v91.59zm-177.78-286.78c0-77.21-16.88-132.7-50.45-166.82-12.4-12.94-27.66-23.35-45.79-31.26-18.32-7.9-35.91-11.84-53.16-11.84-43.81 0-78.47 18.13-103.62 54.41-25.32 36.27-37.89 86.72-37.89 151.37 0 43.82 5.57 81.36 16.53 112.59 11.13 31.07 27.12 54.95 47.94 71.48 20.83 16.52 45.79 24.78 74.88 24.78 29.45 0 55.85-8.62 79.2-25.5 23.34-17.06 41.3-40.94 53.69-71.83s18.68-66.62 18.68-107.39zm440.67-380.15h-121.56v-121.76h121.56v121.76zm64.65 666.93h-246.73v-91.59h68.95v-396.49h-67.87v-90.51h181.01v487h64.65v91.59zm585.95-487h-55.84l-169.34 487h-120.48l-166.83-487h-55.32v-91.59h218.9v91.59h-58.35l123.19 370.64 121.39-370.64h-56.75v-91.59h219.44v91.59zm674.67 177.78l-580.75 242.42v-104.69l448.21-181.91-448.21-180.83v-105.77l580.75 242.42v88.35zm-1693 1580.8l-580.75-242.43v-88.35l580.75-242.41v105.77l-448.21 180.83 448.21 180.84v105.77zm703.56 66.8h-178.86v-84.22c-14.73 20.66-27.3 35.74-37.88 45.44-10.42 9.69-24.79 19.75-42.56 30.17-27.65 14.36-61.24 21.54-100.56 21.54-67.34 0-122.47-28.37-165.2-85.3-42.93-56.75-64.29-129.29-64.29-217.64 0-44.53 5.56-85.12 16.52-121.57 11.13-36.45 26.94-68.23 47.77-95.53 20.65-27.12 45.25-47.95 73.62-62.49 28.38-14.55 59.26-21.91 92.66-21.91 25.86 0 49.39 3.77 70.39 11.31 21.19 7.54 38.97 16.52 53.52 26.93 14.55 10.24 26.58 21.02 36.09 32.33 9.33 11.31 16.16 20.65 19.93 28.38v-218.55h-65.72v-91.58h178.85v711.11h65.73v91.59zm-177.78-286.78c0-77.21-16.88-132.7-50.45-166.83-12.4-12.93-27.65-23.34-45.79-31.25-18.32-7.9-35.91-11.84-53.16-11.84-43.81 0-78.47 18.13-103.62 54.4-25.32 36.28-37.88 86.73-37.88 151.38 0 43.82 5.56 81.35 16.52 112.59 11.13 31.07 27.12 54.95 47.94 71.48 20.84 16.52 45.79 24.78 74.88 24.78 29.45 0 55.85-8.62 79.2-25.5 23.34-17.07 41.31-40.94 53.69-71.83 12.39-30.89 18.67-66.62 18.67-107.39zm440.68-380.15h-121.57v-121.76h121.57v121.76zm64.64 666.93h-246.73v-91.59h68.96v-396.49h-67.88v-90.51h181.02v487h64.64v91.59zm585.96-487h-55.85l-169.33 487h-120.49l-166.83-487h-55.32v-91.59h218.91v91.59h-58.36l123.19 370.64 121.39-370.64h-56.75v-91.59h219.45v91.59zm674.66 177.77l-580.74 242.43v-104.69l448.21-181.91-448.21-180.83v-105.77l580.74 242.41v88.35zm-1693 1580.8l-580.75-242.43v-88.35l580.75-242.42v105.78l-448.21 180.83 448.21 180.84v105.77zm703.56 66.8h-178.85v-84.22c-14.73 20.65-27.3 35.74-37.89 45.44-10.42 9.69-24.79 19.75-42.56 30.17-27.65 14.36-61.24 21.54-100.56 21.54-67.34 0-122.46-28.37-165.2-85.3-42.92-56.75-64.29-129.29-64.29-217.64 0-44.53 5.57-85.12 16.53-121.57 11.13-36.45 26.93-68.24 47.76-95.53 20.65-27.12 45.25-47.95 73.63-62.5 28.37-14.54 59.25-21.91 92.65-21.91 25.86 0 49.39 3.77 70.39 11.31 21.19 7.54 38.97 16.52 53.52 26.94 14.55 10.24 26.58 21.02 36.1 32.33 9.33 11.31 16.16 20.65 19.93 28.37v-218.54h-65.73v-91.58h178.86v711.11h65.72v91.59zm-177.77-286.78c0-77.22-16.88-132.7-50.46-166.83-12.4-12.93-27.65-23.34-45.79-31.25-18.31-7.9-35.91-11.85-53.16-11.85-43.8 0-78.47 18.14-103.61 54.41-25.32 36.28-37.89 86.73-37.89 151.38 0 43.81 5.57 81.35 16.53 112.58 11.13 31.08 27.11 54.96 47.93 71.48 20.84 16.52 45.79 24.78 74.89 24.78 29.45 0 55.84-8.62 79.19-25.49 23.34-17.07 41.31-40.94 53.69-71.83 12.39-30.89 18.68-66.62 18.68-107.38zm440.67-380.15h-121.57v-121.76h121.57v121.76zm64.65 666.93h-246.74v-91.59h68.96v-396.5h-67.88v-90.5h181.02v487h64.65v91.59zm585.95-487.01h-55.85l-169.33 487.01h-120.49l-166.82-487.01h-55.32v-91.58h218.9v91.58h-58.36l123.19 370.65 121.39-370.65h-56.75v-91.58h219.45v91.58zm674.66 177.78l-580.74 242.43v-104.69l448.21-181.91-448.21-180.83v-105.78l580.74 242.42v88.35z"/>
</svg>
