<?xml version="1.0" encoding="UTF-8"?>
<!DOCTYPE svg  PUBLIC '-//W3C//DTD SVG 1.1//EN'  'http://www.w3.org/Graphics/SVG/1.1/DTD/svg11.dtd'>
<svg width="100mm" height="100mm" clip-rule="evenodd" fill-rule="evenodd" image-rendering="optimizeQuality" shape-rendering="geometricPrecision" text-rendering="geometricPrecision" version="1.1" viewBox="0 0 9552.17 9552.17" xml:space="preserve" xmlns="http://www.w3.org/2000/svg">
 <defs>
  <style type="text/css">
   <![CDATA[
    .str0 {stroke:#2B2A29;stroke-width:17.81;stroke-miterlimit:22.9256}
    .fil1 {fill:#FEFEFE}
    .fil0 {fill:#2B2A29}
    .fil2 {fill:#727271;fill-rule:nonzero}
   ]]>
  </style>
 </defs>
  <circle class="fil0 str0" cx="4776.1" cy="4776.1" r="4767.2"/>
  <circle class="fil1 str0" cx="4776.1" cy="4776.1" r="4103.6"/>
  <path class="fil2" d="m2860.4 3445.2l-765.04-319.36v-116.39l765.04-319.35v139.34l-590.45 238.21 590.45 238.22v139.34zm926.84 88h-235.61v-110.95c-19.4 27.21-35.96 47.08-49.91 59.85-13.72 12.78-32.65 26.03-56.07 39.75-36.43 18.92-80.67 28.39-132.47 28.39-88.71 0-161.34-37.38-217.64-112.37-56.54-74.76-84.69-170.32-84.69-286.71 0-58.67 7.34-112.13 21.77-160.15 14.66-48.02 35.48-89.89 62.92-125.85 27.2-35.72 59.61-63.16 96.99-82.32s78.06-28.87 122.06-28.87c34.07 0 65.06 4.97 92.73 14.9 27.91 9.94 51.33 21.76 70.49 35.48 19.17 13.49 35.02 27.68 47.56 42.59 12.3 14.9 21.29 27.2 26.26 37.38v-287.89h-86.58v-120.65h235.61v936.78h86.58v120.65zm-234.2-377.79c0-101.72-22.23-174.82-66.47-219.76-16.33-17.03-36.43-30.75-60.32-41.16-24.13-10.41-47.31-15.61-70.03-15.61-57.71 0-103.37 23.89-136.49 71.68-33.35 47.79-49.91 114.25-49.91 199.42 0 57.72 7.34 107.17 21.77 148.32 14.66 40.93 35.71 72.39 63.15 94.16 27.44 21.76 60.32 32.64 98.64 32.64 38.8 0 73.57-11.35 104.33-33.59 30.75-22.47 54.41-53.93 70.73-94.62s24.6-87.76 24.6-141.46zm580.52-500.79h-160.14v-160.39h160.14v160.39zm85.16 878.58h-325.03v-120.65h90.84v-522.32h-89.42v-119.23h238.45v641.55h85.16v120.65zm771.9-641.55h-73.57l-223.08 641.55h-158.73l-219.76-641.55h-72.87v-120.65h288.37v120.65h-76.88l162.28 488.27 159.91-488.27h-74.76v-120.65h289.08v120.65zm888.76 234.2l-765.04 319.36v-137.92l590.45-239.64-590.45-238.21v-139.34l765.04 319.35v116.39zm-2230.3 2082.4l-765.04-319.36v-116.39l765.04-319.35v139.34l-590.45 238.21 590.45 238.22v139.34zm926.84 88h-235.61v-110.95c-19.4 27.21-35.96 47.08-49.91 59.85-13.72 12.78-32.65 26.03-56.07 39.75-36.43 18.92-80.67 28.39-132.47 28.39-88.71 0-161.34-37.38-217.64-112.37-56.54-74.76-84.69-170.32-84.69-286.71 0-58.67 7.34-112.13 21.77-160.15 14.66-48.02 35.48-89.89 62.92-125.85 27.2-35.72 59.61-63.16 96.99-82.32s78.06-28.87 122.06-28.87c34.07 0 65.06 4.97 92.73 14.9 27.91 9.94 51.33 21.76 70.49 35.48 19.17 13.49 35.02 27.68 47.56 42.59 12.3 14.9 21.29 27.2 26.26 37.38v-287.89h-86.58v-120.65h235.61v936.78h86.58v120.65zm-234.2-377.79c0-101.72-22.23-174.82-66.47-219.76-16.33-17.03-36.43-30.75-60.32-41.16-24.13-10.41-47.31-15.61-70.03-15.61-57.71 0-103.37 23.89-136.49 71.68-33.35 47.79-49.91 114.25-49.91 199.42 0 57.72 7.34 107.17 21.77 148.32 14.66 40.93 35.71 72.39 63.15 94.16 27.44 21.76 60.32 32.64 98.64 32.64 38.8 0 73.57-11.35 104.33-33.59 30.75-22.47 54.41-53.93 70.73-94.62s24.6-87.76 24.6-141.46zm580.52-500.79h-160.14v-160.39h160.14v160.39zm85.16 878.58h-325.03v-120.65h90.84v-522.32h-89.42v-119.23h238.45v641.55h85.16v120.65zm771.9-641.55h-73.57l-223.08 641.55h-158.73l-219.76-641.55h-72.87v-120.65h288.37v120.65h-76.88l162.28 488.27 159.91-488.27h-74.76v-120.65h289.08v120.65zm888.76 234.2l-765.04 319.36v-137.92l590.45-239.64-590.45-238.21v-139.34l765.04 319.35v116.39zm-2230.3 2082.4l-765.04-319.36v-116.39l765.04-319.35v139.34l-590.45 238.21 590.45 238.22v139.34zm926.84 88h-235.61v-110.95c-19.4 27.21-35.96 47.08-49.91 59.85-13.72 12.78-32.65 26.03-56.07 39.75-36.43 18.92-80.67 28.39-132.47 28.39-88.71 0-161.34-37.38-217.64-112.37-56.54-74.76-84.69-170.32-84.69-286.71 0-58.67 7.34-112.13 21.77-160.15 14.66-48.02 35.48-89.89 62.92-125.85 27.2-35.72 59.61-63.16 96.99-82.32s78.06-28.87 122.06-28.87c34.07 0 65.06 4.97 92.73 14.9 27.91 9.94 51.33 21.76 70.49 35.48 19.17 13.49 35.02 27.68 47.56 42.59 12.3 14.9 21.29 27.2 26.26 37.38v-287.89h-86.58v-120.65h235.61v936.78h86.58v120.65zm-234.2-377.79c0-101.72-22.23-174.82-66.47-219.76-16.33-17.03-36.43-30.75-60.32-41.16-24.13-10.41-47.31-15.61-70.03-15.61-57.71 0-103.37 23.89-136.49 71.68-33.35 47.79-49.91 114.25-49.91 199.42 0 57.72 7.34 107.17 21.77 148.32 14.66 40.93 35.71 72.39 63.15 94.16 27.44 21.76 60.32 32.64 98.64 32.64 38.8 0 73.57-11.35 104.33-33.59 30.75-22.47 54.41-53.93 70.73-94.62s24.6-87.76 24.6-141.46zm580.52-500.79h-160.14v-160.39h160.14v160.39zm85.16 878.58h-325.03v-120.65h90.84v-522.32h-89.42v-119.23h238.45v641.55h85.16v120.65zm771.9-641.55h-73.57l-223.08 641.55h-158.73l-219.76-641.55h-72.87v-120.65h288.37v120.65h-76.88l162.28 488.27 159.91-488.27h-74.76v-120.65h289.08v120.65zm888.76 234.2l-765.04 319.36v-137.92l590.45-239.64-590.45-238.21v-139.34l765.04 319.35v116.39z"/>
</svg>
